<?xml version="1.0" standalone="no"?>
<!DOCTYPE svg PUBLIC "-//W3C//DTD SVG 1.1//EN" "http://www.w3.org/Graphics/SVG/1.1/DTD/svg11.dtd" >
<!--
2013-9-30: Created.
-->
<svg>
<metadata>
Created by iconfont
</metadata>
<defs>

<font id="yl-ui-icon" horiz-adv-x="1024" >
  <font-face
    font-family="yl-ui-icon"
    font-weight="500"
    font-stretch="normal"
    units-per-em="1024"
    ascent="896"
    descent="-128"
  />
    <missing-glyph />
    
    <glyph glyph-name="loading" unicode="&#58884;" d="M80.18432 659.1487999999999c-0.42496-0.67584-0.92928-2.37312-1.12128-3.77088-0.42496-3.10528-0.18688-2.88-3.52256-3.32544-3.456-0.46336-4.1856-1.19296-4.64896-4.64896-0.45056-3.37152-0.68608-3.50208-7.68256-4.24704-0.43264-0.04608-0.66304-8.95488-0.512-19.79648l0.27904-19.712 3.84-0.31744c3.26144-0.27136 3.84-0.68096 3.84-2.73152 0-4.38272 1.05984-5.65504 4.71808-5.65504 2.99264 0 3.47392-0.34304 3.47392-2.47552 0-5.24288 0.73216-5.71648 8.81408-5.71648 7.32416 0 7.56992-0.07936 7.56992-2.47552 0-4.44672 1.04704-5.71648 4.71808-5.71648 3.1488 0 4.9536-3.06944 3.21792-5.47584-1.23136-1.70496 3.15904-3.44576 9.18272-3.64032 7.99744-0.25856 7.22432 0.08192 7.6928-3.40736 0.60928-4.53888 0.66816-4.56704 10.51648-4.75648l6.656-0.128v-3.47392c0-3.67104 1.26976-4.71808 5.71648-4.71808 2.13248 0 2.47552-0.48128 2.47552-3.47392 0-4.20864 1.05728-4.71808 9.81248-4.71808H161.792v-3.47392c0-4.20864 1.05728-4.71808 9.81248-4.71808H178.176v-3.47392c0-4.20864 1.05728-4.71808 9.81248-4.71808 5.84704 0 6.58688-0.22528 6.69952-2.048 0.29696-4.73088 0.8192-5.38112 4.75648-5.90848 3.35104-0.448 3.09504-0.192 3.54304-3.54304 0.6016-4.49792 0.73728-4.56448 10.00448-4.75648 5.78048-0.12032 6.144-0.27392 6.144-2.60352 0-5.24288 0.73216-5.71648 8.81408-5.71648H235.52l0.01536-2.816c0.03072-5.41184 0.16128-5.44512 21.05088-5.14304l19.38176 0.27904 0.31488 3.78112c0.2944 3.55328 0.54272 3.8016 4.096 4.096 3.56352 0.29696 3.79904 0.53504 4.09856 4.15488 0.27136 3.26144 0.68096 3.84 2.73152 3.84 5.74208 0 5.65504-0.31232 5.65504 20.48 0 20.82048 0.09472 20.48-5.71648 20.48-2.13248 0-2.47552 0.48128-2.47552 3.47392 0 3.67104-1.26976 4.71808-5.71648 4.71808-2.13248 0-2.47552 0.48128-2.47552 3.47392 0 4.20352-1.0624 4.71808-9.75104 4.71808h-6.51008l-0.31744 3.84-0.31744 3.84-7.936 0.29952c-7.58784 0.28672-7.936 0.40448-7.936 2.73152 0 4.4032-1.05728 5.67296-4.71808 5.67296-2.99264 0-3.47392 0.34304-3.47392 2.47552 0 5.24288-0.73216 5.71648-8.81408 5.71648-7.32416 0-7.56992 0.07936-7.56992 2.47552 0 5.24288-0.73216 5.71648-8.81408 5.71648-7.32416 0-7.56992 0.07936-7.56992 2.47552 0 5.28896-0.69376 5.71648-9.26464 5.71648h-8.02048l-0.31744 3.84c-0.29952 3.61984-0.53504 3.85792-4.09856 4.15488-3.55328 0.2944-3.8016 0.54272-4.096 4.096L176.64 626.1759999999999l-7.87712 0.29696-7.87712 0.29952-0.31488 3.79648-0.31488 3.79904-7.936 0.29952-7.936 0.29952v3.9424c0 4.73088-0.86016 5.18656-9.81248 5.18656H128V647.6800000000001c0 1.9712-0.3456 3.6224-0.768 3.66848-6.94528 0.76032-7.20896 0.90112-7.63904 4.02944-0.68096 4.96384-0.83968 5.00224-20.26496 5.00224-13.18912 0-18.59072-0.34816-19.14368-1.23136M252.91008 830.9324799999999c-0.55296-1.45664-1.00608-3.25888-1.00608-4.0064 0-0.74496-1.59488-1.65376-3.5456-2.01984-3.0208-0.56576-3.64032-1.17248-4.19072-4.11392-0.54528-2.89792-1.18528-3.54816-4.02176-4.08064-4.36992-0.82176-4.59776-1.81504-4.59776-20.03968 0-18.22464 0.22784-19.21792 4.59776-20.03968 2.83648-0.53248 3.47648-1.18272 4.02176-4.08064 0.5504-2.94144 1.16992-3.54816 4.19072-4.11392l3.5456-0.6656v-6.09792c0-7.9872 1.15968-10.05824 5.62432-10.05824h3.50464l0.29952-7.936 0.29952-7.936 3.79904-0.31488 3.79648-0.31488 0.29952-7.87712L269.824 719.36l3.78112-0.31488c3.55328-0.2944 3.8016-0.54272 4.096-4.096 0.29696-3.56352 0.53504-3.79904 4.15488-4.09856l3.84-0.31744v-7.58272c0-8.0768 1.01632-9.7024 6.07744-9.7024 1.93536 0 2.11456-0.60672 2.11456-7.13216 0-7.5904 1.09056-9.25184 6.07744-9.25184 1.93536 0 2.11456-0.60672 2.11456-7.13216 0-7.5904 1.09056-9.25184 6.07744-9.25184 1.66144 0 2.11456-0.65024 2.11456-3.03616 0-3.22816 2.27328-5.15584 6.07744-5.15584 1.9456 0 2.11456-0.6016 2.11456-7.56992 0-8.08192 0.4736-8.81408 5.71648-8.81408 2.34496 0 2.47552-0.32512 2.47552-6.21056 0-7.82336 1.1904-10.17344 5.15584-10.17344 2.38592 0 3.03616-0.45312 3.03616-2.11456 0-3.80416 1.92768-6.07744 5.15584-6.07744 2.38592 0 3.03616-0.45312 3.03616-2.11456 0-5.88544 0.6272-6.07744 19.91936-6.07744 20.69248 0 21.04064 0.0768 21.04064 4.65664 0 3.20256 0.23552 3.4304 3.84 3.72992 3.61984 0.29952 3.85792 0.53504 4.15488 4.09856 0.2944 3.55328 0.54272 3.8016 4.096 4.096l3.78112 0.31488 0.27904 18.93888c0.30464 20.58496 0.06656 21.50912-5.5936 21.50912-2.24512 0-2.36544 0.36352-2.36544 7.13216 0 7.57504-1.09312 9.25184-6.03136 9.25184-1.86112 0-2.10176 0.7552-2.37056 7.424l-0.30208 7.424-3.75552 0.92928c-3.16672 0.7808-3.85536 1.45664-4.3904 4.31104-0.54016 2.87232-1.17504 3.48672-4.18048 4.04992l-3.5456 0.6656v6.09792c0 7.71072-1.2032 10.05824-5.15584 10.05824-3.03104 0-3.03616 0.00768-3.03616 6.21056 0 7.82336-1.1904 10.17344-5.15584 10.17344-3.03104 0-3.03616 0.00768-3.03616 6.21056 0 7.82336-1.1904 10.17344-5.15584 10.17344-2.38592 0-3.03616 0.45312-3.03616 2.11456 0 3.80416-1.92768 6.07744-5.15584 6.07744-3.01312 0-3.03616 0.04608-3.04896 5.888-0.02304 8.77824-0.68608 10.3424-4.70784 11.0976-3.40736 0.63744-3.47136 0.74496-3.48416 5.9136-0.02304 8.4352-0.69888 9.79456-5.22752 10.51904-3.53536 0.56576-3.97568 0.95744-3.97568 3.54048 0 3.08992-2.33984 5.02528-6.07744 5.02528-1.93536 0-2.11456 0.60672-2.11456 7.13216 0 7.5904-1.09056 9.25184-6.07744 9.25184-1.66144 0-2.11456 0.65024-2.11456 3.03616 0 3.21024-2.27072 5.15584-6.016 5.15584-1.63328 0-2.11712 0.78592-2.37056 3.84l-0.31744 3.84-19.21792 0.27904-19.21536 0.27904-1.00864-2.6496M491.52 893.44c0-2.304-0.4096-2.56-4.096-2.56h-4.096v-8.192h-8.20224l0.26112-110.848 0.26112-110.848 3.78112-0.31488c3.55328-0.2944 3.8016-0.54272 4.096-4.096 0.29696-3.55328 0.54272-3.79904 4.096-4.096 3.55328-0.2944 3.8016-0.54272 4.096-4.096l0.31488-3.78112 20.224-0.27648 20.224-0.27904V652.288h8.192V660.48h8.192V882.688h-8.192V890.88h-4.096c-3.6864 0-4.096 0.256-4.096 2.56V896h-40.96v-2.56M244.06528 823.76448c-0.3328-0.8704-0.32-1.8688 0.03328-2.21952 0.35072-0.35072 0.63744 0.09472 0.63744 0.99328 0 0.89856 0.8064 1.8432 1.792 2.0992 1.67936 0.44032 1.6768 0.47616-0.03328 0.5888-1.00096 0.064-2.09664-0.59392-2.42944-1.46176m-8.192-8.192c-0.3328-0.8704-0.32-1.8688 0.03328-2.21952 0.35072-0.35072 0.63744 0.09472 0.63744 0.99328 0 0.89856 0.8064 1.8432 1.792 2.0992 1.67936 0.44032 1.6768 0.47616-0.03328 0.5888-1.00096 0.064-2.09664-0.59392-2.42944-1.46176m87.90272-23.63136c0.95232-0.2816 1.96352-1.2928 2.24512-2.24512 0.37632-1.25184 0.4608-1.16736 0.3072 0.3072a2.496 2.496 0 0 1-2.24512 2.24512c-1.47456 0.1536-1.55904 0.06912-0.3072-0.3072m-87.92832-13.17632c0.12032-1.19552 1.0496-2.1248 2.24512-2.24512 1.47456-0.1536 1.55904-0.06912 0.3072 0.3072-0.95232 0.2816-1.96352 1.2928-2.24512 2.24512-0.37632 1.25184-0.4608 1.16736-0.3072-0.3072m96.12032-3.20768c0.95232-0.2816 1.96352-1.2928 2.24512-2.24512 0.37632-1.25184 0.4608-1.16736 0.3072 0.3072a2.496 2.496 0 0 1-2.24512 2.24512c-1.47456 0.1536-1.55904 0.06912-0.3072-0.3072m-87.92832-4.98432c0.12032-1.19552 1.0496-2.1248 2.24512-2.24512 1.47456-0.1536 1.55904-0.06912 0.3072 0.3072-0.95232 0.2816-1.96352 1.2928-2.24512 2.24512-0.37632 1.25184-0.4608 1.16736-0.3072-0.3072m128.88832-69.76768c0.95232-0.2816 1.96352-1.2928 2.24512-2.24512 0.37632-1.25184 0.4608-1.16736 0.3072 0.3072a2.496 2.496 0 0 1-2.24512 2.24512c-1.47456 0.1536-1.55904 0.06912-0.3072-0.3072M731.81952 832.85248c-0.37632-0.37376-0.68352-2.1888-0.68352-4.03456 0-3.13344-0.24832-3.37152-3.84-3.66848-3.61984-0.29952-3.85792-0.53504-4.15488-4.09856-0.2944-3.55328-0.54272-3.8016-4.096-4.096L715.264 816.64l-0.29696-7.87712-0.29952-7.87712-3.79648-0.31488c-3.57376-0.29696-3.81696-0.54016-4.11392-4.096-0.2944-3.55328-0.54272-3.8016-4.096-4.096L698.88 792.064l-0.29696-7.87712-0.29952-7.87712-3.79648-0.31488L690.688 775.6800000000001l-0.29696-8.448-0.29696-8.448h-4.05504c-4.04736 0-4.05504-0.00768-4.05504-4.096v-4.096h-8.192v-16.384H665.6v-16.384h-8.192v-16.26112l-3.84-0.31744c-3.61984-0.29952-3.85792-0.53504-4.15488-4.09856-0.2944-3.55328-0.54272-3.8016-4.096-4.096l-3.78112-0.31488-0.29696-7.87968-0.29952-7.87968-4.30848-0.31232L632.32 676.352l-0.29696-7.87712-0.29952-7.87712-3.79648-0.31488-3.79904-0.31488v-39.936l3.78112-0.31488c3.55328-0.2944 3.8016-0.54272 4.096-4.096 0.30464-3.65824 0.45568-3.79136 4.66688-4.096 4.33152-0.31232 4.352-0.33536 4.352-4.352v-4.03712H680.96v8.192h8.192V619.52h8.192v16.26624l4.352 0.31488 4.352 0.31488 0.29696 7.87712 0.29952 7.87712 3.79648 0.31488c3.57376 0.29696 3.81696 0.54016 4.11392 4.096 0.2944 3.55328 0.54272 3.8016 4.096 4.096l3.78112 0.31488 0.29696 7.87712 0.29952 7.87712 3.79648 0.31488 3.79904 0.31488 0.29696 7.87712 0.29952 7.87712 3.79648 0.31488L738.816 693.76l0.29696 8.38912 0.29696 8.38912 3.79904 0.31488c3.57376 0.29696 3.81696 0.54016 4.11392 4.096 0.2944 3.55328 0.54272 3.8016 4.096 4.096L755.2 719.36l0.29696 7.87712 0.29952 7.87712 3.79648 0.31488 3.79904 0.31488 0.29952 7.936 0.29952 7.936h8.10496v16.26112l3.84 0.31744c3.61984 0.29952 3.85792 0.53504 4.15488 4.09856 0.2944 3.55328 0.54272 3.8016 4.096 4.096l3.78112 0.31488V816.64l-3.78112 0.31488c-3.55328 0.2944-3.8016 0.54272-4.096 4.096-0.29696 3.56352-0.53504 3.79904-4.15488 4.09856-3.73248 0.30976-3.84 0.43008-3.84 4.352V833.5360000000001h-19.79648c-10.89024 0-20.10624-0.3072-20.48-0.68352m174.10048-173.03296c-0.38656-0.38656-0.704-2.21184-0.704-4.0576 0-3.13344-0.24832-3.37152-3.84-3.66848-3.6224-0.29952-3.85792-0.53248-4.15488-4.11648l-0.31488-3.79904-8.38912-0.29696-8.38912-0.29696-0.31232-4.31104-0.31232-4.30848-7.87968-0.29952-7.87968-0.29696-0.31488-3.79904-0.31488-3.79648-7.87712-0.29952-7.87712-0.29696-0.31488-3.78112c-0.2944-3.55328-0.54272-3.8016-4.096-4.096-3.56352-0.29696-3.79904-0.53504-4.09856-4.15488l-0.31744-3.84H822.272v-8.192h-16.384v-8.192h-16.384v-8.192h-4.096c-4.08832 0-4.096-0.00768-4.096-4.05504v-4.05504l-8.448-0.29696-8.448-0.29696-0.31488-3.79904-0.31488-3.79648-7.87712-0.29952-7.87712-0.29696-0.31488-3.78112c-0.2944-3.55328-0.54272-3.8016-4.096-4.096-3.55328-0.29696-3.79904-0.54272-4.096-4.096-0.2944-3.55328-0.54272-3.8016-4.096-4.096l-3.78112-0.31488v-39.936l3.78112-0.31488c3.55328-0.2944 3.8016-0.54272 4.096-4.096 0.29696-3.55328 0.54272-3.79904 4.096-4.096 3.55328-0.2944 3.8016-0.54272 4.096-4.096l0.31488-3.78112 20.224-0.27648 20.224-0.27904V503.808h16.384v8.10496l7.936 0.29952 7.936 0.29952 0.31488 3.78112c0.2944 3.55328 0.54272 3.8016 4.096 4.096 3.55584 0.29696 3.79904 0.54016 4.096 4.11392l0.31488 3.79904 8.38912 0.29696 8.38912 0.29696 0.31488 3.79904 0.31488 3.79648 7.87712 0.29952L862.72 537.088l0.31488 3.79904 0.31488 3.79648 7.87712 0.29952L879.104 545.28l0.31488 3.78112c0.2944 3.55328 0.54272 3.8016 4.096 4.096 3.55584 0.29696 3.79904 0.54016 4.096 4.11392l0.31488 3.79648 7.87712 0.29952L903.68 561.664l0.31488 3.79904 0.31488 3.79648 7.87712 0.29952 7.87712 0.29696 0.31488 4.352c0.31232 4.33152 0.33536 4.352 4.352 4.352 4.02688 0 4.03712 0.01024 4.03712 4.096v4.096h16.384v8.192h4.096c4.08576 0 4.096 0.01024 4.096 4.03712 0 4.01664 0.02048 4.03968 4.352 4.352l4.352 0.31488V643.5840000000001l-4.29312 0.31232c-4.14464 0.30208-4.30592 0.44288-4.608 4.096-0.29696 3.55584-0.54272 3.8016-4.096 4.09856-3.55328 0.2944-3.8016 0.54272-4.096 4.096L944.64 659.968l-19.008 0.27904c-10.45248 0.15104-19.32288-0.04096-19.712-0.42752M13.99808 420.1856c-0.37632-0.37888-0.68608-2.19392-0.68608-4.03968 0-3.13344-0.24832-3.37152-3.84-3.66848-3.63264-0.29952-3.85792-0.5248-4.15744-4.15744-0.27392-3.3024-0.66816-3.84-2.816-3.84H0v-40.96h2.56c2.304 0 2.56-0.4096 2.56-4.096v-4.096h8.192v-8.20224l110.848 0.26112 110.848 0.26112 0.31488 3.78112c0.2944 3.55328 0.54272 3.8016 4.096 4.096 3.55328 0.29696 3.79904 0.54272 4.096 4.096 0.2944 3.55328 0.54272 3.8016 4.096 4.096l3.78112 0.31488v39.936l-3.78112 0.31488c-3.55328 0.2944-3.8016 0.54272-4.096 4.096-0.29696 3.55328-0.54272 3.79904-4.096 4.096-3.55328 0.2944-3.8016 0.54272-4.096 4.096L235.008 420.352l-110.16192 0.26112c-60.58752 0.14336-110.46912-0.04864-110.848-0.42752m776.192 0c-0.37632-0.37888-0.68608-2.19392-0.68608-4.03968 0-3.13344-0.24832-3.37152-3.84-3.66848-3.61984-0.29952-3.85792-0.53504-4.15488-4.09856-0.2944-3.55328-0.54272-3.8016-4.096-4.096l-3.78112-0.31488-0.27648-20.224-0.27904-20.224h8.23552v-8.192h8.192v-8.20224l110.848 0.26112 110.848 0.26112 0.31488 3.78112c0.2944 3.55328 0.54272 3.8016 4.096 4.096 3.56352 0.29696 3.79904 0.53504 4.09856 4.15488 0.24832 3.008 0.74752 3.84 2.304 3.84 1.89952 0 1.98656 0.896 1.98656 20.48s-0.08704 20.48-1.98656 20.48c-1.55648 0-2.05568 0.832-2.304 3.84-0.29952 3.61984-0.53504 3.85792-4.09856 4.15488-3.55328 0.2944-3.8016 0.54272-4.096 4.096L1011.2 420.352l-110.16192 0.26112c-60.58752 0.14336-110.46912-0.04864-110.848-0.42752M236.224 271.72352c-0.38656-0.38912-0.704-2.22208-0.704-4.07552v-3.36896l-7.936-0.29952-7.936-0.29952-0.31232-4.31104-0.31232-4.30848-7.87968-0.29952-7.87968-0.29696-0.31488-3.78112c-0.2944-3.55328-0.54272-3.8016-4.096-4.096-3.56352-0.29696-3.79904-0.53504-4.09856-4.15488l-0.31744-3.84H178.176v-8.192h-16.384v-8.192h-16.384v-8.192h-4.096c-4.08832 0-4.096-0.00768-4.096-4.05504v-4.05504l-8.448-0.29696-8.448-0.29696-0.31488-3.79904-0.31488-3.79648-7.87712-0.29952L103.936 197.12l-0.31488-3.78112c-0.2944-3.55328-0.54272-3.8016-4.096-4.096-3.55584-0.29696-3.79904-0.54016-4.096-4.11392l-0.31488-3.79648-7.87712-0.29952L79.36 180.736l-0.31488-3.78112c-0.2944-3.55328-0.54272-3.8016-4.096-4.096-3.55328-0.29696-3.79904-0.54272-4.096-4.096-0.2944-3.55328-0.54272-3.8016-4.096-4.096l-3.78112-0.31488-0.27648-20.224-0.27904-20.224h4.05504c3.94752 0 4.06528-0.1024 4.37504-3.84 0.29952-3.61984 0.53504-3.85792 4.09856-4.15488 3.55328-0.2944 3.8016-0.54272 4.096-4.096L79.36 108.03200000000004h39.936l0.31744 3.84c0.30976 3.73248 0.43008 3.84 4.352 3.84 4.02432 0 4.03456 0.01024 4.03456 4.096v4.096h16.384v8.10496l7.936 0.29952 7.936 0.29952 0.31488 3.79904 0.31488 3.79648 7.87712 0.29952L176.64 140.79999999999995l0.31488 3.78112c0.2944 3.55328 0.54272 3.8016 4.096 4.096 3.55584 0.29696 3.79904 0.54016 4.096 4.11392l0.31488 3.79904 8.38912 0.29696L202.24 157.18399999999997l0.31488 3.79904 0.31488 3.79648 7.87712 0.29952 7.87712 0.29696 0.31488 3.79904 0.31488 3.79648 7.87712 0.29952 7.87712 0.29696 0.31488 3.78112c0.2944 3.55328 0.54272 3.8016 4.096 4.096 3.55584 0.29696 3.79904 0.54016 4.096 4.11392l0.31488 3.79648 7.87712 0.29952 7.87712 0.29696 0.31488 4.352 0.31488 4.352H276.48v8.192h8.192V215.03999999999996h8.192v39.936h-4.03712c-4.01664 0-4.03968 0.02048-4.352 4.352-0.30464 4.2112-0.43776 4.36224-4.096 4.66688-3.55328 0.2944-3.8016 0.54272-4.096 4.096l-0.31488 3.78112-19.52 0.27648c-10.73664 0.1536-19.83744-0.0384-20.224-0.42496m512 0c-0.38656-0.38912-0.704-2.21184-0.704-4.0576 0-3.13344-0.24832-3.37152-3.84-3.66848-3.71712-0.3072-3.85024-0.45312-4.15232-4.61056-0.30208-4.14464-0.44288-4.30592-4.096-4.608l-3.78368-0.31488v-38.912l3.78112-0.31488c3.55328-0.2944 3.8016-0.54272 4.096-4.096 0.29696-3.55328 0.54272-3.79904 4.096-4.096 3.55328-0.2944 3.8016-0.54272 4.096-4.096l0.31488-3.78112 7.87968-0.29696 7.87968-0.29952 0.31232-4.30848 0.31232-4.31104 8.38912-0.29696 8.38912-0.29696 0.31488-3.79904c0.29696-3.57376 0.54016-3.81696 4.096-4.11392 3.55328-0.2944 3.8016-0.54272 4.096-4.096l0.31488-3.78112 7.87712-0.29696 7.87712-0.29952 0.31488-3.79648 0.31488-3.79904 7.87712-0.29696 7.87712-0.29952 0.31488-3.79648 0.31488-3.79904 7.87712-0.29696 7.87712-0.29952 0.31488-3.79648c0.29696-3.57376 0.54016-3.81696 4.096-4.11392 3.55328-0.2944 3.8016-0.54272 4.096-4.096L847.36 140.79999999999995l7.87712-0.29696 7.87712-0.29952 0.31488-3.79648 0.31488-3.79904 7.87712-0.29696 7.87712-0.29952 0.31488-3.79648 0.31488-3.79904 8.448-0.29696 8.448-0.29696v-4.05504c0-4.04736 0.00768-4.05504 4.096-4.05504h4.096v-8.192h39.936v8.192h4.096c4.08576 0 4.096 0.01024 4.096 4.03712 0 4.01664 0.02048 4.03968 4.352 4.352l4.352 0.31488v39.936l-4.29312 0.31232c-4.14464 0.30208-4.30592 0.44288-4.608 4.096-0.29696 3.55584-0.54272 3.8016-4.096 4.09856-3.55328 0.2944-3.8016 0.54272-4.096 4.096L944.64 180.736l-7.87712 0.29696-7.87712 0.29952-0.31488 3.79648c-0.29696 3.584-0.53248 3.81696-4.15488 4.11648-3.73248 0.30976-3.84 0.43008-3.84 4.352V197.63199999999995h-16.384v8.192h-16.26112l-0.31744 3.84c-0.29952 3.61984-0.53504 3.85792-4.09856 4.15488-3.55328 0.2944-3.8016 0.54272-4.096 4.096l-0.31488 3.78112-7.87712 0.29696-7.87712 0.29952-0.31488 3.79648L862.72 229.88800000000003l-7.87712 0.29696-7.87712 0.29952-0.31488 3.79648L846.336 238.08000000000004l-8.448 0.29696-8.448 0.29696v4.05504c0 4.04736-0.00768 4.05504-4.096 4.05504h-4.096v8.192h-16.26624l-0.31488 4.352-0.31488 4.352-7.87712 0.29696-7.87712 0.29952-0.31488 3.79648-0.31488 3.79904-19.52 0.27648c-10.73664 0.1536-19.83744-0.0384-20.224-0.42496m-404.48-107.52c-0.38656-0.38912-0.704-2.21184-0.704-4.0576 0-3.13344-0.24832-3.37152-3.84-3.66848-3.61984-0.29952-3.85792-0.53504-4.15488-4.09856-0.2944-3.55328-0.54272-3.8016-4.096-4.096l-3.78112-0.31488-0.29696-7.87712-0.29952-7.87712-3.79648-0.31488-3.79904-0.31488-0.29696-8.448-0.29696-8.448h-4.05504c-4.04736 0-4.05504-0.00768-4.05504-4.096v-4.096H302.08v-16.384h-8.192v-16.384h-8.192v-16.26112l-3.84-0.31744c-3.61984-0.29952-3.85792-0.53504-4.15488-4.09856-0.2944-3.55328-0.54272-3.8016-4.096-4.096L269.824 48.639999999999986l-0.29696-7.87712-0.29952-7.87712-3.79648-0.31488-3.79904-0.31488-0.29696-7.87968-0.29952-7.87968-4.30848-0.31232-4.31104-0.31232-0.29696-8.38912-0.29696-8.38912-3.79904-0.31488c-3.57376-0.29696-3.81696-0.54016-4.11392-4.096-0.2944-3.55328-0.54272-3.8016-4.096-4.096l-3.78112-0.31488V-48.639999999999986l3.78112-0.31488c3.55328-0.2944 3.8016-0.54272 4.096-4.096 0.29696-3.55328 0.54272-3.79904 4.09856-4.096 3.65312-0.30208 3.79392-0.46336 4.096-4.608l0.31232-4.29312h39.936l0.31488 4.352c0.31232 4.33152 0.33536 4.352 4.352 4.352 4.02688 0 4.03712 0.01024 4.03712 4.096v4.096h8.192v16.384h4.096c4.08576 0 4.096 0.01024 4.096 4.03712 0 4.01664 0.02048 4.03968 4.352 4.352l4.352 0.31488 0.29696 7.87712 0.29952 7.87712 3.79648 0.31488L334.336-7.67999999999995l0.29696 7.87712 0.29952 7.87712 3.79648 0.31488c3.57376 0.29696 3.81696 0.54016 4.11392 4.096 0.2944 3.55328 0.54272 3.8016 4.096 4.096L350.72 16.895999999999958l0.29696 7.87712 0.29952 7.87712 3.79648 0.31488L358.912 33.27999999999997l0.29696 7.87712 0.29952 7.87712 3.79648 0.31488 3.79904 0.31488 0.29696 8.38912 0.29696 8.38912 3.79904 0.31488c3.584 0.29696 3.81696 0.53248 4.11648 4.15488 0.30976 3.73248 0.43008 3.84 4.352 3.84H384v16.384h8.192V107.51999999999998h8.23552l-0.27904 20.224-0.27648 20.224-3.78112 0.31488c-3.55328 0.2944-3.8016 0.54272-4.096 4.096-0.29696 3.55328-0.54272 3.79904-4.096 4.096-3.55328 0.2944-3.8016 0.54272-4.096 4.096l-0.31488 3.78112-19.52 0.27648c-10.73664 0.1536-19.83744-0.0384-20.224-0.42496m297.984 0c-0.38656-0.38656-0.704-2.2144-0.704-4.06016 0-3.2128-0.18176-3.3664-4.352-3.66848-4.2112-0.30464-4.36224-0.43776-4.66688-4.096-0.2944-3.55328-0.54272-3.8016-4.096-4.096l-3.78112-0.31488v-39.936l3.79904-0.31488 3.79648-0.31488 0.29952-7.87712 0.29696-7.87712 4.352-0.31488 4.352-0.31488v-16.26624h8.192v-4.096c0-4.08832 0.00768-4.096 4.05504-4.096h4.05504l0.29696-8.448 0.29696-8.448 3.79904-0.31488 3.79648-0.31488 0.29952-7.87712 0.29696-7.87712 3.79904-0.31488 3.79648-0.31488 0.29952-7.87712 0.29696-7.87712 3.78112-0.31488c3.55328-0.2944 3.8016-0.54272 4.096-4.096 0.29696-3.56352 0.53504-3.79904 4.15488-4.09856l3.84-0.31744v-16.26112h8.192v-16.384h4.03456c3.92192 0 4.04224-0.10752 4.352-3.84 0.29952-3.6224 0.53248-3.85792 4.11648-4.15488l3.79648-0.31488 0.29952-7.87712 0.29696-7.87712 3.78112-0.31488c3.55328-0.2944 3.8016-0.54272 4.096-4.096 0.29696-3.55328 0.54272-3.79904 4.09856-4.096 3.65312-0.30208 3.79392-0.46336 4.096-4.608l0.31232-4.29312h39.936l0.31488 4.352c0.31232 4.33152 0.33536 4.352 4.352 4.352 4.02688 0 4.03712 0.01024 4.03712 4.096v4.096h8.192v39.936h-8.192V-5.1200000000000045c0 4.08832-0.00768 4.096-4.05504 4.096h-4.05504l-0.29696 8.448-0.29696 8.448-3.79904 0.31488-3.79648 0.31488-0.29952 7.87712-0.29696 7.87712-3.79904 0.31488-3.79648 0.31488-0.29952 7.87712L755.2 48.639999999999986l-3.78112 0.31488c-3.55328 0.2944-3.8016 0.54272-4.096 4.096-0.29696 3.55584-0.54016 3.79904-4.11392 4.096l-3.79648 0.31488-0.29952 7.87712-0.29696 7.87712-3.79904 0.31488-3.79648 0.31488-0.29952 7.87712L730.624 89.60000000000002l-3.79904 0.31488-3.79648 0.31488-0.29952 7.87712-0.29696 7.87712-3.78112 0.31488c-3.55328 0.2944-3.8016 0.54272-4.096 4.096-0.29696 3.55584-0.54016 3.79904-4.11392 4.096l-3.79904 0.31488-0.29696 8.38912-0.29696 8.38912-4.31104 0.31232-4.30848 0.31232-0.29952 7.87968-0.29696 7.87968-3.78112 0.31488c-3.55328 0.2944-3.8016 0.54272-4.096 4.096-0.29696 3.55328-0.54272 3.79904-4.096 4.096-3.55328 0.2944-3.8016 0.54272-4.096 4.096l-0.31488 3.78112-19.008 0.27904c-10.45248 0.15104-19.32288-0.04096-19.712-0.42752m-149.52448-42.00704c-0.37632-0.37376-0.68352-2.1888-0.68352-4.03456 0-3.13344-0.24832-3.37152-3.84-3.66848-3.61984-0.29952-3.85792-0.53504-4.15488-4.09856-0.2944-3.55328-0.54272-3.8016-4.096-4.096l-3.78112-0.31488V-115.20000000000005l3.78112-0.31488c3.55328-0.2944 3.8016-0.54272 4.096-4.096 0.29696-3.56352 0.53504-3.79904 4.15488-4.09856 3.008-0.24832 3.84-0.74752 3.84-2.304 0-1.89952 0.896-1.98656 20.48-1.98656s20.48 0.08704 20.48 1.98656c0 1.55648 0.832 2.05568 3.84 2.304 3.61984 0.29952 3.85792 0.53504 4.15488 4.09856 0.2944 3.55328 0.54272 3.8016 4.096 4.096L548.352-115.20000000000005l0.26112 110.848 0.26112 110.848H540.672v8.192H532.48V122.88h-19.79648c-10.89024 0-20.10624-0.3072-20.48-0.68352"  horiz-adv-x="1024" />

    
    <glyph glyph-name="debug" unicode="&#58885;" d="M544 507.488V800a32 32 0 0 1-64 0v-292.512c-55.104-14.272-96-63.904-96-123.488s40.896-109.216 96-123.488v-291.616C480-49.27999999999997 494.336-64 512-64s32 14.72 32 32.928V260.544c55.104 14.272 96 63.904 96 123.488s-40.896 109.184-96 123.456zM223.136 187.74400000000003c0.192 1.44 0.864 2.752 0.864 4.256V800a32 32 0 0 1-64 0v-608c0-1.504 0.672-2.816 0.864-4.256A127.744 127.744 0 0 1 64 64a128 128 0 0 1 256 0 127.744 127.744 0 0 1-96.864 123.744zM192 0a64 64 0 1 0 0.032 128.032A64 64 0 0 0 192 0z m768 704a128 128 0 0 1-256 0 127.744 127.744 0 0 1 96.864-123.744c-0.192-1.44-0.864-2.752-0.864-4.256v-608a32 32 0 0 1 64 0V576c0 1.504-0.672 2.816-0.864 4.256A127.744 127.744 0 0 1 960 704z m-128-64a64 64 0 1 0 0.032 128.032A64 64 0 0 0 832 640z"  horiz-adv-x="1024" />

    
    <glyph glyph-name="share" unicode="&#58886;" d="M800 192c-39.584 0-74.528-18.368-98.016-46.592l-273.472 154.72A191.04 191.04 0 0 1 448 384c0 28.928-6.592 56.256-18.048 80.864l204.64 131.84A127.04 127.04 0 0 1 704 576a128 128 0 1 1-128 128c0-21.504 5.792-41.44 15.168-59.232L393.76 517.6A191.36 191.36 0 0 1 256 576a192 192 0 1 1 135.2-328.288L674.368 87.51999999999998A129.376 129.376 0 0 1 672 64a128 128 0 1 1 128 128z m-96 576a64 64 0 1 0-0.032-128.032A64 64 0 0 0 704 768z m96-768a64 64 0 1 0 0.032 128.032A64 64 0 0 0 800 0z"  horiz-adv-x="1024" />

    
    <glyph glyph-name="sences" unicode="&#58887;" d="M592 560H176c-52.928 0-96-43.072-96-96v-416c0-52.928 43.072-96 96-96h416c52.928 0 96 43.072 96 96V464c0 52.928-43.072 96-96 96z m32-512a32 32 0 0 0-32-32H176c-17.632 0-32 14.336-32 32V464c0 17.632 14.368 32 32 32h416c17.664 0 32-14.368 32-32v-416zM720 688H304a32 32 0 0 1 0-64h416c17.664 0 32-14.368 32-32v-416a32 32 0 1 1 64 0V592c0 52.928-43.072 96-96 96zM528 144H240a32 32 0 1 1 0-64h288a32 32 0 1 1 0 64zM848 816H432a32 32 0 0 1 0-64h416c17.664 0 32-14.368 32-32v-416a32 32 0 1 1 64 0V720c0 52.928-43.072 96-96 96z"  horiz-adv-x="1024" />

    
    <glyph glyph-name="correct" unicode="&#58888;" d="M892.064 634.1120000000001a31.936 31.936 0 0 1-45.216-1.472L421.664 178.75199999999995 201.216 363.96799999999996a32 32 0 1 1-41.152-48.992l243.648-204.704a31.872 31.872 0 0 1 20.576-7.488 31.808 31.808 0 0 1 23.36 10.112l445.888 475.968a32 32 0 0 1-1.472 45.248z"  horiz-adv-x="1024" />

    
    <glyph glyph-name="switch" unicode="&#58889;" d="M704 672H320C161.216 672 32 542.784 32 384c0-158.816 129.216-288 288-288h384c158.816 0 288 129.184 288 288 0 158.784-129.184 288-288 288z m0-512H320C196.48 160 96 260.51199999999994 96 384c0 123.52 100.48 224 224 224h384c123.488 0 224-100.48 224-224 0-123.488-100.512-224-224-224zM320 576c-105.888 0-192-86.112-192-192s86.112-192 192-192 192 86.112 192 192-86.112 192-192 192z m0-320c-70.592 0-128 57.408-128 128s57.408 128 128 128 128-57.408 128-128-57.408-128-128-128z"  horiz-adv-x="1024" />

    
    <glyph glyph-name="left" unicode="&#58890;" d="M512-96C246.912-96 32 118.91200000000003 32 384 32 649.088 246.912 864 512 864c265.088 0 480-214.912 480-480 0-265.088-214.912-480-480-480z m0 64c229.76 0 416 186.24 416 416S741.76 800 512 800 96 613.76 96 384s186.24-416 416-416zM336 416a32 32 0 0 1 0-64h416a32 32 0 0 1 0 64H336zM316.928 384l151.36 170.784a32 32 0 1 1-47.872 42.432l-170.208-192a32 32 0 0 1 0-42.432l170.24-192a32 32 0 1 1 47.872 42.432L316.928 384z"  horiz-adv-x="1024" />

    
    <glyph glyph-name="double-right" unicode="&#58891;" d="M790.8 405.2L489 707c-11.7 11.7-30.7 11.7-42.4 0s-11.7-30.7 0-42.4L727.1 384 446.6 103.5c-11.7-11.7-11.7-30.7 0-42.4 5.9-5.9 13.5-8.8 21.2-8.8s15.4 2.9 21.2 8.8l301.7 301.8c11.8 11.6 11.8 30.6 0.1 42.3z m-213.4 0L275.7 707c-11.7 11.7-30.7 11.7-42.4 0s-11.7-30.7 0-42.4L513.8 384 233.3 103.5c-11.7-11.7-11.7-30.7 0-42.4 5.9-5.9 13.5-8.8 21.2-8.8s15.4 2.9 21.2 8.8l301.7 301.8c11.8 11.6 11.8 30.6 0 42.3z"  horiz-adv-x="1024" />

    
    <glyph glyph-name="right" unicode="&#58892;" d="M512-96C246.912-96 32 118.91200000000003 32 384 32 649.088 246.912 864 512 864c265.088 0 480-214.912 480-480 0-265.088-214.912-480-480-480z m0 64c229.76 0 416 186.24 416 416S741.76 800 512 800 96 613.76 96 384s186.24-416 416-416zM688 416a32 32 0 0 0 0-64H272a32 32 0 0 0 0 64h416zM707.072 384l-151.36 170.784a32 32 0 1 0 47.872 42.432l170.208-192a32 32 0 0 0 0-42.432l-170.24-192a32 32 0 1 0-47.872 42.432L707.072 384z"  horiz-adv-x="1024" />

    
    <glyph glyph-name="bottom" unicode="&#58893;" d="M512 672c-159.056 0-288-128.944-288-288s128.944-288 288-288 288 128.944 288 288-128.944 288-288 288z m0 48c185.568 0 336-150.432 336-336S697.568 48 512 48 176 198.432 176 384s150.432 336 336 336z m23.12-402.016l30.64 30.656a16 16 0 0 0 11.312 4.688h28.304a14.464 14.464 0 0 0 10.224-24.704l-97.808-97.808a11.136 11.136 0 0 0-15.744 0l-97.808 97.808a14.464 14.464 0 0 0 10.24 24.704h28.288a16 16 0 0 0 11.312-4.688l32.88-32.88V528a16 16 0 0 0 16 16h16.16a16 16 0 0 0 16-16v-210.016z"  horiz-adv-x="1024" />

    
    <glyph glyph-name="close" unicode="&#58894;" d="M507.168 422.768L716.48 632.064a16 16 0 0 0 22.624 0l11.312-11.312a16 16 0 0 0 0-22.624L541.12 388.832 750.4 179.52a16 16 0 0 0 0-22.624l-11.312-11.312a16 16 0 0 0-22.624 0L507.168 354.88 297.872 145.6a16 16 0 0 0-22.624 0l-11.312 11.312a16 16 0 0 0 0 22.624l209.296 209.312-209.296 209.296a16 16 0 0 0 0 22.624l11.312 11.312a16 16 0 0 0 22.624 0l209.296-209.296z"  horiz-adv-x="1024" />

    
    <glyph glyph-name="problem" unicode="&#58895;" d="M535.088 321.056V280a16 16 0 0 0-16-16h-16a16 16 0 0 0-16 16v72a16 16 0 0 0 16 16h16.496a72 72 0 1 1-71.216 85.392A16 16 0 0 0 432.576 440h-18.64a13.92 13.92 0 0 0-13.824 15.744A120.016 120.016 0 0 0 639.088 440a120.016 120.016 0 0 0-104-118.944z m-32-137.056a16 16 0 0 0-16 16v16a16 16 0 0 0 16 16h16a16 16 0 0 0 16-16v-16a16 16 0 0 0-16-16h-16zM512 96c159.056 0 288 128.944 288 288S671.056 672 512 672 224 543.056 224 384s128.944-288 288-288z m0-48c-185.568 0-336 150.432-336 336s150.432 336 336 336 336-150.432 336-336-150.432-336-336-336z"  horiz-adv-x="1024" />

    
    <glyph glyph-name="down" unicode="&#58896;" d="M830.24 555.312L841.568 544a16 16 0 0 0 0-22.624L530.448 210.24a16 16 0 0 0-22.64 0l-311.12 311.136a16 16 0 0 0 0 22.624L208 555.312a16 16 0 0 0 22.624 0L519.12 266.816l288.512 288.496a16 16 0 0 0 22.624 0z"  horiz-adv-x="1024" />

    
    <glyph glyph-name="double-up" unicode="&#58897;" d="M231.5 318.6L512 599.1l280.5-280.5c5.9-5.9 13.5-8.8 21.2-8.8s15.4 2.9 21.2 8.8c11.7 11.7 11.7 30.7 0 42.4L533.2 662.8c-11.7 11.7-30.7 11.7-42.4 0L189 361c-11.7-11.7-11.7-30.7 0-42.4 11.8-11.7 30.8-11.7 42.5 0zM835 147.70000000000005L533.2 449.4c-11.7 11.7-30.7 11.7-42.4 0L189 147.70000000000005c-11.7-11.7-11.7-30.7 0-42.4s30.7-11.7 42.4 0L512 385.8l280.5-280.5c5.9-5.9 13.5-8.8 21.2-8.8s15.4 2.9 21.2 8.8c11.8 11.7 11.8 30.7 0.1 42.4z"  horiz-adv-x="1024" />

    
    <glyph glyph-name="double-left" unicode="&#58898;" d="M296.9 384l280.5 280.5c11.7 11.7 11.7 30.7 0 42.4s-30.7 11.7-42.4 0L233.3 405.2c-11.7-11.7-11.7-30.7 0-42.4L535 61c5.9-5.9 13.5-8.8 21.2-8.8 7.7 0 15.4 2.9 21.2 8.8 11.7 11.7 11.7 30.7 0 42.4L296.9 384z m493.9-280.5L510.2 384l280.5 280.5c11.7 11.7 11.7 30.7 0 42.4s-30.7 11.7-42.4 0L446.6 405.2c-11.7-11.7-11.7-30.7 0-42.4L748.3 61c5.9-5.9 13.5-8.8 21.2-8.8 7.7 0 15.4 2.9 21.2 8.8 11.8 11.8 11.8 30.7 0.1 42.5z"  horiz-adv-x="1024" />

    
    <glyph glyph-name="link" unicode="&#58899;" d="M828.769 338.74699999999996c-12.496-12.496-32.757-12.496-45.253 0-12.496 12.496-12.496 32.756 0 45.253l67.879 67.879c74.977 74.978 74.977 196.54 0 271.516-74.977 74.977-196.538 74.977-271.516 0L421.495 565.01c-74.977-74.977-74.977-196.539 0-271.516 12.496-12.496 12.496-32.756 0-45.253-12.496-12.496-32.756-12.496-45.253 0-99.97 99.969-99.97 262.051 0 362.021l158.384 158.384c99.97 99.97 262.052 99.97 362.021 0 99.97-99.97 99.97-262.052 0-362.02l-67.878-67.88z m-181.011 181.01c99.97-99.968 99.97-262.05 0-362.02L489.374-0.6470000000000482c-99.97-99.97-262.052-99.97-362.021 0s-99.97 262.052 0 362.02l45.252 45.253c12.497 12.496 32.756 12.496 45.253 0 12.496-12.496 12.496-32.756 0-45.252l-45.253-45.253c-74.976-74.978-74.976-196.54 0-271.516s196.54-74.976 271.516 0L602.505 202.99c74.977 74.977 74.977 196.539 0 271.516-12.496 12.496-12.496 32.756 0 45.253s32.756 12.497 45.253 0z"  horiz-adv-x="1024" />

    
    <glyph glyph-name="delete" unicode="&#58900;" d="M656 608h144a16 16 0 0 0 16-16v-16a16 16 0 0 0-16-16h-48v-496a16 16 0 0 0-16-16H288a16 16 0 0 0-16 16V560h-48a16 16 0 0 0-16 16v16a16 16 0 0 0 16 16h144v80a16 16 0 0 0 16 16h256a16 16 0 0 0 16-16v-80z m-48 0v48H416v-48h192z m32-48H320v-464h384V560h-64zM432 448h16a16 16 0 0 0 16-16v-192a16 16 0 0 0-16-16h-16a16 16 0 0 0-16 16V432a16 16 0 0 0 16 16z m144 0h16a16 16 0 0 0 16-16v-192a16 16 0 0 0-16-16h-16a16 16 0 0 0-16 16V432a16 16 0 0 0 16 16z"  horiz-adv-x="1024" />

    
    <glyph glyph-name="round-close" unicode="&#58901;" d="M557.253 384L693.01 248.24199999999996c12.495-12.496 12.495-32.757 0-45.253-12.496-12.495-32.757-12.495-45.253 0L512 338.74699999999996 376.242 202.99c-12.497-12.496-32.757-12.495-45.253 0-12.495 12.496-12.496 32.756 0 45.253L466.747 384 330.99 519.758c-12.496 12.497-12.495 32.757 0 45.253 12.496 12.495 32.756 12.496 45.253 0L512 429.253 647.758 565.01c12.496 12.495 32.756 12.495 45.253 0 12.495-12.496 12.495-32.757 0-45.253L557.253 384z m-429.234 0c0-212.063 171.918-383.981 383.981-383.981S895.981 171.937 895.981 384 724.061 767.981 512 767.981 128.019 596.063 128.019 384z m-63.998 0C64.021 631.4069999999999 264.593 831.979 512 831.979S959.978 631.4069999999999 959.978 384 759.406-63.97799999999995 512-63.97799999999995 64.021 136.59400000000005 64.021 384z"  horiz-adv-x="1024" />

    
    <glyph glyph-name="category" unicode="&#58902;" d="M64.021 42.70600000000002c0 11.769 9.455 21.31 21.263 21.31h853.43c11.743 0 21.263-9.443 21.263-21.31v-21.377c0-11.769-9.456-21.31-21.263-21.31H85.285c-11.743 0-21.263 9.443-21.263 21.31v21.377z m0 351.982c0 11.77 9.455 21.31 21.263 21.31h853.43c11.743 0 21.263-9.442 21.263-21.31v-21.376c0-11.77-9.456-21.31-21.263-21.31H85.285c-11.743 0-21.263 9.442-21.263 21.31v21.376z m0 351.984c0 11.769 9.455 21.31 21.263 21.31h853.43c11.743 0 21.263-9.443 21.263-21.31v-21.377c0-11.769-9.456-21.31-21.263-21.31H85.285c-11.743 0-21.263 9.443-21.263 21.31v21.377z"  horiz-adv-x="1024" />

    
    <glyph glyph-name="search" unicode="&#58903;" d="M423.401 184.582c159.05 0 287.986 128.936 287.986 287.986S582.452 760.554 423.401 760.554 135.415 631.62 135.415 472.568s128.936-287.986 287.986-287.986z m270.492 62.747l43.98-43.98c10.706 2.819 22.59 0.035 30.78-8.154L938.52 25.327999999999975c18.708-18.708 18.81-48.938-0.065-67.813-18.744-18.744-49.136-18.742-67.814-0.066L700.774 127.31600000000003c-8.36 8.36-11.131 20.18-8.229 30.856l-43.904 43.905c-61.037-50.881-139.564-81.491-225.239-81.491-194.394 0-351.983 157.588-351.983 351.983S229.007 824.552 423.4 824.552s351.984-157.588 351.984-351.984c0-85.676-30.61-164.202-81.492-225.239z"  horiz-adv-x="1024" />

    
    <glyph glyph-name="notice" unicode="&#58904;" d="M320.01 495.995c0-63.997 0-94.872-32-191.99-21.331-65.379-63.996-129.377-127.994-191.992h703.967C799.986 176.01 757.32 240.00800000000004 735.988 304.004 703.99 400 703.99 431.998 703.99 495.994c0 127.995-32 223.99-191.991 223.99-154.756 0-191.99-95.995-191.99-223.99z m282.523-447.98H421.467c13.178-37.283 48.736-63.996 90.533-63.996s77.355 26.713 90.533 63.997z m3.22 724.685c114.993-31.422 162.234-127.552 162.234-276.705 0-89.717 4.65-99.557 28.714-171.753 17.921-53.765 55.12-109.561 112.533-166.976 40.316-40.316 11.763-109.25-45.252-109.25h-195.19C653.968-25.00999999999999 589.402-79.976 512-79.976s-141.968 54.966-156.792 127.993H160.016c-57.352 0-85.75 69.63-44.756 109.74 57.058 55.826 94.02 111.27 111.967 166.274 15.731 47.746 25.326 105.066 28.785 171.965 0 146.07 49.27 243.45 162.078 275.986 9.2 43.418 47.75 75.997 93.91 75.997 45.903 0 84.283-32.22 93.753-75.278z"  horiz-adv-x="1024" />

    
    <glyph glyph-name="create" unicode="&#58905;" d="M543.999 415.999h191.99c17.673 0 32-14.327 32-31.999s-14.327-31.999-32-31.999H544v-191.99c0-17.673-14.327-32-31.999-32s-31.999 14.327-31.999 32V352h-191.99c-17.673 0-32 14.327-32 31.999s14.327 31.999 32 31.999H480v191.99c0 17.673 14.327 32 31.999 32s31.999-14.327 31.999-32V416zM128.019 384c0-212.063 171.918-383.981 383.981-383.981S895.981 171.937 895.981 384 724.061 767.981 512 767.981 128.019 596.063 128.019 384z m-63.998 0C64.021 631.4069999999999 264.593 831.979 512 831.979S959.978 631.4069999999999 959.978 384 759.406-63.97799999999995 512-63.97799999999995 64.021 136.59400000000005 64.021 384z"  horiz-adv-x="1024" />

    
    <glyph glyph-name="collection" unicode="&#58906;" d="M746.112 398.24A132.48 132.48 0 0 1 784 491.248C784 564.576 724.784 624 651.776 624a132.16 132.16 0 0 1-118.304-73.392c-8.832-17.712-34.112-17.712-42.944 0A132.16 132.16 0 0 1 372.224 624C299.2 624 240 564.576 240 491.248c0-35.2 13.68-68.16 37.712-92.832 1.84-1.904 3.312-4 4.384-6.192L504.72 154.56 743.312 394.8c0.8 1.2 1.744 2.352 2.8 3.44zM192 491.248C192 591.056 272.672 672 372.224 672c55.344 0 106.192-25.248 139.776-66.624A179.872 179.872 0 0 0 651.776 672C751.328 672 832 591.056 832 491.248c0-46.192-17.376-89.68-48-122.816a24.48 24.48 0 0 0-3.248-4.048l-259.52-261.296a24 24 0 0 0-34.544 0.512L241.936 364.88a24.176 24.176 0 0 0-4.112 5.936A180.448 180.448 0 0 0 192 491.248z"  horiz-adv-x="1024" />

    
    <glyph glyph-name="menu" unicode="&#58907;" d="M288.01 32.01700000000005c0 17.673 14.035 32 31.958 32H928.02c17.65 0 31.959-14.204 31.959-32 0-17.672-14.035-31.998-31.959-31.998H319.968c-17.65 0-31.957 14.202-31.957 31.998z m0 351.983c0 17.672 14.035 31.999 31.958 31.999H928.02c17.65 0 31.959-14.203 31.959-31.999 0-17.672-14.035-31.999-31.959-31.999H319.968c-17.65 0-31.957 14.204-31.957 31.999z m0 351.984c0 17.672 14.035 31.998 31.958 31.998H928.02c17.65 0 31.959-14.202 31.959-31.998 0-17.673-14.035-32-31.959-32H319.968c-17.65 0-31.957 14.203-31.957 32zM64.022 32.01700000000005c0 17.673 14.198 32 31.993 32h96.007c17.669 0 31.993-14.204 31.993-32 0-17.672-14.198-31.998-31.993-31.998H96.014c-17.67 0-31.993 14.202-31.993 31.998z m0 351.983c0 17.672 14.198 31.999 31.993 31.999h96.007c17.669 0 31.993-14.203 31.993-31.999 0-17.672-14.198-31.999-31.993-31.999H96.014c-17.67 0-31.993 14.204-31.993 31.999z m0 351.984c0 17.672 14.198 31.998 31.993 31.998h96.007c17.669 0 31.993-14.202 31.993-31.998 0-17.673-14.198-32-31.993-32H96.014c-17.67 0-31.993 14.203-31.993 32z"  horiz-adv-x="1024" />

    
    <glyph glyph-name="refresh" unicode="&#58908;" d="M733.04 516.896a264.112 264.112 0 0 1-468.112-41.76 14.336 14.336 0 0 0-17.968-8.16l-20.256 7.008a12.352 12.352 0 0 0-7.456 16.192 312.112 312.112 0 0 0 556.736 48.56l12.704 44.352a16 16 0 0 0 7.632 9.584l24.752 13.712a14.464 14.464 0 0 0 20.912-16.64l-38.128-132.96a11.136 11.136 0 0 0-13.76-7.632l-132.96 38.128a14.464 14.464 0 0 0-3.04 26.56l24.752 13.712a16 16 0 0 0 12.16 1.392l42.032-12.048zM285.52 236.544a264.112 264.112 0 0 1 468.112 41.76 14.336 14.336 0 0 0 17.968 8.16l20.256-7.008a12.352 12.352 0 0 0 7.44-16.176c-46.368-118.032-160.8-199.072-290.432-199.072-110.96 0-210.768 59.296-266.304 150.432l-12.704-44.288a16 16 0 0 0-7.616-9.584l-24.752-13.712a14.464 14.464 0 0 0-20.928 16.64l38.128 132.96a11.136 11.136 0 0 0 13.76 7.632l132.976-38.128a14.464 14.464 0 0 0 3.04-26.56l-24.768-13.712a16 16 0 0 0-12.16-1.392l-42.016 12.048z"  horiz-adv-x="1024" />

    
    <glyph glyph-name="add" unicode="&#58909;" d="M488 408V704a16 16 0 0 0 16 16h16a16 16 0 0 0 16-16v-296h296a16 16 0 0 0 16-16v-16a16 16 0 0 0-16-16H536v-296a16 16 0 0 0-16-16h-16a16 16 0 0 0-16 16V360H192a16 16 0 0 0-16 16v16a16 16 0 0 0 16 16h296z"  horiz-adv-x="1024" />

    
    <glyph glyph-name="top" unicode="&#58910;" d="M535.12 453.568v-210.016a16 16 0 0 0-16-16h-16.16a16 16 0 0 0-16 16v212.24l-32.88-32.864a16 16 0 0 0-11.312-4.688h-28.304a14.464 14.464 0 0 0-10.24 24.688l97.824 97.808a11.136 11.136 0 0 0 15.744 0l97.808-97.808a14.464 14.464 0 0 0-10.24-24.688h-28.288a16 16 0 0 0-11.312 4.688l-30.64 30.64zM512 96c159.056 0 288 128.944 288 288S671.056 672 512 672 224 543.056 224 384s128.944-288 288-288z m0-48c-185.568 0-336 150.432-336 336s150.432 336 336 336 336-150.432 336-336-150.432-336-336-336z"  horiz-adv-x="1024" />

    
    <glyph glyph-name="up" unicode="&#58911;" d="M830.24 210.24l11.328 11.312a16 16 0 0 1 0 22.64l-311.12 311.12a16 16 0 0 1-22.64 0l-311.12-311.12a16 16 0 0 1 0-22.64L208 210.24a16 16 0 0 1 22.624 0L519.12 498.752 807.632 210.24a16 16 0 0 1 22.624 0z"  horiz-adv-x="1024" />

    
    <glyph glyph-name="application" unicode="&#58912;" d="M192 736a32 32 0 0 1-32-32v-192a32 32 0 0 1 32-32h192a32 32 0 0 1 32 32V704a32 32 0 0 1-32 32H192z m0 64h192a96 96 0 0 0 96-96v-192a96 96 0 0 0-96-96H192a96 96 0 0 0-96 96V704a96 96 0 0 0 96 96z m0-512a32 32 0 0 1-32-32v-192a32 32 0 0 1 32-32h192a32 32 0 0 1 32 32V256a32 32 0 0 1-32 32H192z m0 64h192a96 96 0 0 0 96-96v-192a96 96 0 0 0-96-96H192a96 96 0 0 0-96 96V256a96 96 0 0 0 96 96z m448-64a32 32 0 0 1-32-32v-192a32 32 0 0 1 32-32h192a32 32 0 0 1 32 32V256a32 32 0 0 1-32 32H640z m0 64h192a96 96 0 0 0 96-96v-192a96 96 0 0 0-96-96H640a96 96 0 0 0-96 96V256a96 96 0 0 0 96 96z m-37.728 277.728a32 32 0 0 1 0-45.28l112-112a32 32 0 0 1 45.28 0l112 112a32 32 0 0 1 0 45.28l-112 112a32 32 0 0 1-45.28 0l-112-112z m-45.248 45.248l112 112a96 96 0 0 0 135.776 0l112-112a96 96 0 0 0 0-135.776l-112-112a96 96 0 0 0-135.776 0l-112 112a96 96 0 0 0 0 135.776z"  horiz-adv-x="1024" />

    
    <glyph glyph-name="camera" unicode="&#58913;" d="M618.132 717.13l77.357-106.367c23.8-32.728 62.167-52.267 102.635-52.267H956.17v-507.624H67.83V558.496h158.047c40.468 0 78.837 19.54 102.63 52.265l77.362 106.368h212.264M512 146.05200000000002c104.963 0 190.36 85.395 190.36 190.36S616.963 526.77 512 526.77s-190.36-85.395-190.36-190.36 85.397-190.36 190.36-190.36m106.132 634.53H405.868a63.453 63.453 0 0 1-51.316-26.132l-77.36-106.368a63.452 63.452 0 0 0-51.317-26.133H67.83c-35.045 0-63.453-28.409-63.453-63.453v-507.624c0-35.045 28.407-63.453 63.453-63.453H956.17c35.042 0 63.453 28.407 63.453 63.453V558.496c0 35.044-28.41 63.453-63.453 63.453H798.124a63.448 63.448 0 0 0-51.316 26.133L669.447 754.45a63.455 63.455 0 0 1-51.315 26.131zM512 209.505c-70.087 0-126.906 56.817-126.906 126.906 0 70.087 56.819 126.906 126.906 126.906s126.906-56.819 126.906-126.906c0-70.09-56.819-126.906-126.906-126.906zM210.598 717.129H83.692c-17.525 0-31.726-14.205-31.726-31.726 0-17.524 14.201-31.727 31.726-31.727h126.906c17.522 0 31.727 14.203 31.727 31.727 0 17.52-14.205 31.726-31.727 31.726z"  horiz-adv-x="1024" />

    
    <glyph glyph-name="setting" unicode="&#58914;" d="M513.797-63.97799999999995c-5.25 0-10.53 0.078-15.78 0.266a455.753 455.753 0 0 0-33.562 2.422c-15.25 1.672-27.154 13.89-28.405 29.14-1.812 21.687-10.625 41.576-25.499 57.498-35.31 37.904-93.745 41.091-132.868 7.233-11.562-10-28.592-10.406-40.716-0.952-26.936 21.17-51.498 45.513-72.997 72.324-9.561 11.952-9.342 28.998 0.532 40.685 14.062 16.609 21.904 36.873 22.655 58.638 1.781 51.825-37.249 95.355-88.872 99.089-15.28 1.109-27.654 12.921-29.467 28.139a451.2 451.2 0 0 0-2.874 69.106c0.406 11.343 1.187 22.53 2.406 33.592 1.655 15.249 13.905 27.154 29.185 28.42 21.656 1.781 41.499 10.593 57.436 25.468 37.936 35.342 41.091 93.714 7.25 132.9-10 11.593-10.406 28.67-0.938 40.716 21.25 26.967 45.561 51.529 72.34 72.965 11.907 9.593 28.969 9.344 40.687-0.547 16.592-14.045 36.872-21.874 58.653-22.64 52.842-2.437 95.34 37.265 99.09 88.903 1.093 15.28 12.905 27.624 28.123 29.451a452.74 452.74 0 0 0 69.12 2.86 458.813 458.813 0 0 0 33.562-2.406c15.25-1.656 27.155-13.906 28.436-29.186 1.782-21.67 10.561-41.545 25.436-57.466 35.312-37.904 93.745-41.076 132.932-7.218 11.562 10 28.686 10.406 40.685 0.922 26.968-21.202 51.498-45.53 72.965-72.31 9.594-11.951 9.343-29.013-0.563-40.7-14.03-16.578-21.874-36.842-22.624-58.622-1.781-51.81 37.249-95.34 88.902-99.089 15.312-1.125 27.655-12.921 29.467-28.139 2.687-22.655 3.656-45.904 2.844-69.09-0.406-11.344-1.187-22.546-2.406-33.608-1.656-15.217-13.906-27.139-29.155-28.405-21.655-1.797-41.56-10.608-57.497-25.468-37.905-35.342-41.06-93.73-7.219-132.9 10-11.593 10.406-28.654 0.937-40.7-21.217-26.953-45.528-51.514-72.34-72.982-11.969-9.578-28.999-9.343-40.686 0.563-16.562 14.03-36.81 21.842-58.622 22.608-52.935 2.28-95.34-37.248-99.089-88.887-1.094-15.28-12.906-27.639-28.123-29.451a452.746 452.746 0 0 0-53.341-3.142z m-18.624 64.434c1.687-0.078 3.375-0.157 5.062-0.203a397.114 397.114 0 0 1 35.561 0.375c17.936 72.136 83.278 123.306 160.804 120.838 26.499-0.938 52.404-8.515 75.121-21.765a381.427 381.427 0 0 1 28.655 28.889c-38.342 63.669-28.03 146.634 28.28 199.131 19.374 18.078 43.06 31.03 68.528 37.733 0.062 1.719 0.156 3.452 0.219 5.171a395.75 395.75 0 0 1-0.375 35.514c-72.152 17.906-123.525 83.871-120.838 160.79 0.907 26.498 8.5 52.418 21.75 75.152a387.007 387.007 0 0 1-28.874 28.64c-63.685-38.327-146.619-28.015-199.147 28.264-18.374 19.702-31.186 43.044-37.811 68.543-1.687 0.078-3.343 0.157-5.03 0.203-11.843 0.39-23.781 0.312-35.562-0.375-17.905-72.152-82.777-123.213-160.804-120.838-26.936 0.953-52.498 8.39-75.215 21.733a392.164 392.164 0 0 1-28.592-28.842c38.342-63.684 28.03-146.649-28.28-199.131-19.375-18.078-43.061-31.045-68.528-37.748-0.062-1.72-0.157-3.437-0.219-5.156-0.406-11.812-0.25-23.702 0.406-35.514 72.122-17.906 123.494-83.871 120.807-160.805-0.907-26.92-8.343-52.497-21.718-75.215a389.054 389.054 0 0 1 28.842-28.577C321.93 135.668 404.833 125.27700000000004 457.362 69c18.374-19.702 31.186-43.028 37.81-68.543z m18.467 191.553c-105.87 0-191.99 86.12-191.99 191.991s86.12 191.99 191.99 191.99S705.631 489.87 705.631 384s-86.12-191.99-191.99-191.99z m0 319.985c-70.59 0-127.994-57.419-127.994-127.994S443.05 256.006 513.64 256.006 641.634 313.42499999999995 641.634 384 584.231 511.994 513.64 511.994z"  horiz-adv-x="1024" />

    
    <glyph glyph-name="mute" unicode="&#58915;" d="M240 294.608h91.248a16 16 0 0 0 10.416-3.856L528 130.832v503.6L341.312 474.464a16 16 0 0 0-10.4-3.84H240v-176z m-48-32v240a16 16 0 0 0 16 16h111.072L549.584 716.16A16 16 0 0 0 576 704v-642.8a16 16 0 0 0-26.416-12.144L319.392 246.608H208a16 16 0 0 0-16 16z m528 155.328l62.24 62.24a16 16 0 0 0 22.608 0l11.312-11.328a16 16 0 0 0 0-22.624L753.936 384l62.24-62.24a16 16 0 0 0 0-22.608l-11.328-11.312a16 16 0 0 0-22.624 0L720 350.064l-62.24-62.24a16 16 0 0 0-22.608 0l-11.312 11.328a16 16 0 0 0 0 22.624L686.064 384l-62.24 62.24a16 16 0 0 0 0 22.608l11.328 11.312a16 16 0 0 0 22.624 0L720 417.936z"  horiz-adv-x="1024" />

    
    <glyph glyph-name="next" unicode="&#58916;" d="M340.688 65.76L352 54.432a16 16 0 0 1 22.624 0l311.136 311.12a16 16 0 0 1 0 22.64l-311.136 311.12a16 16 0 0 1-22.624 0L340.688 688a16 16 0 0 1 0-22.624L629.184 376.88 340.688 88.368a16 16 0 0 1 0-22.624z"  horiz-adv-x="1024" />

    
    <glyph glyph-name="phone_fill" unicode="&#58917;" d="M712.095-47.98000000000002c11.269 0 22.665 0.358 34.187 1.07 47.828 3 91.845 20.65 130.78 52.145 12.464 10.083 23.898 21.213 33.97 33.025 5.28 6.192 9.769 12.077 13.222 17.34 6.682 9.288 12.934 21.982 16.474 33.896 6.559 22.071 3.243 39.231-9.852 51.73-34.455 32.796-176.702 131.497-207.548 143.963-8.36 3.366-16.723 5.058-24.907 5.058-25.037 0-46.654-13.598-72.642-46.158-3.169-3.973-5.87-7.528-11.696-15.389-28.708-38.749-37.219-45.01-60.34-37.7-41.98 13.189-78.585 38.879-130.075 91.193-49.613 50.43-67.872 74.065-83.013 107.618a310.865 310.865 0 0 1-4.12 8.922c-12.009 24.935-3.9 37.915 40.065 75.256 5.1 4.347 5.1 4.347 7.604 6.5 1.56 1.352 1.56 1.352 2.327 2.019 0.563 0.492 0.563 0.492 1.43 1.254 38.777 34.043 53.757 76.277 38.747 105.757-30.18 59.216-116.691 184.374-146.303 211.431-26.02 23.805-62.855 19.425-108.398-14.383-15.418-11.454-31.912-28.758-46.31-48.93-26.955-37.766-42.165-80.16-44.987-126.112-9.058-147.514 71.77-330.86 206.179-466.751 126.663-128 269.67-192.754 425.206-192.754z"  horiz-adv-x="1024" />

    
    <glyph glyph-name="component" unicode="&#58918;" d="M960 304.576V527.04c0 0.288 0.16 0.512 0.16 0.768s-0.16 0.512-0.16 0.768V704a32 32 0 0 1-32 32H96a32 32 0 0 1-32-32v-175.424c0-0.288-0.16-0.512-0.16-0.768s0.16-0.48 0.16-0.768v-222.464c0-0.288-0.16-0.512-0.16-0.768s0.16-0.48 0.16-0.768V32a32 32 0 0 1 32-32h832a32 32 0 0 1 32 32V303.03999999999996c0 0.288 0.16 0.512 0.16 0.768s-0.16 0.512-0.16 0.768z m-560 31.232v160h208v-160H400z m208-64V64H400V271.808h208z m-480 224h208v-160H128v160z m544 0h224v-160H672v160zM896 672v-112.192H128V672h768zM128 271.808h208V64H128V271.808zM672 64V271.808h224V64H672z"  horiz-adv-x="1024" />

    
    <glyph glyph-name="pack" unicode="&#58919;" d="M880.288 663.52L560.192 850.88a95.648 95.648 0 0 1-96.64 0L143.68 663.52A96.64 96.64 0 0 1 96 580.096v-397.664c0-34.784 18.624-66.88 48.736-84l320-181.92a95.52 95.52 0 0 1 94.496 0l320 181.92a96.576 96.576 0 0 1 48.768 84V580.096a96.64 96.64 0 0 1-47.712 83.424zM864 182.43200000000002c0-11.584-6.208-22.304-16.256-28l-320-181.92a31.776 31.776 0 0 0-31.488 0l-320 181.92a32.192 32.192 0 0 0-16.256 28V580.096c0 11.456 6.048 22.048 15.904 27.808l319.872 187.36a31.84 31.84 0 0 0 32.192 0l320.128-187.392c9.856-5.728 15.904-16.32 15.904-27.776v-397.664zM512 576a192 192 0 1 1 0-384 192 192 0 0 1 0 384z m0-320a128 128 0 1 0 0 256 128 128 0 0 0 0-256z"  horiz-adv-x="1024" />

    
    <glyph glyph-name="prev" unicode="&#58920;" d="M685.76 65.75999999999999l-11.312-11.328a16 16 0 0 0-22.64 0l-311.12 311.12a16 16 0 0 0 0 22.64l311.12 311.12a16 16 0 0 0 22.64 0L685.76 688a16 16 0 0 0 0-22.624L397.248 376.88 685.76 88.36800000000005a16 16 0 0 0 0-22.624z"  horiz-adv-x="1024" />

    
    <glyph glyph-name="double-down" unicode="&#58921;" d="M792.5 449.4L512 168.89999999999998 231.5 449.4c-11.7 11.7-30.7 11.7-42.4 0s-11.7-30.7 0-42.4l301.8-301.7c5.9-5.9 13.5-8.8 21.2-8.8 7.7 0 15.4 2.9 21.2 8.8L835 407c11.7 11.7 11.7 30.7 0 42.4-11.8 11.7-30.8 11.7-42.5 0zM490.8 318.6c5.9-5.9 13.5-8.8 21.2-8.8 7.7 0 15.4 2.9 21.2 8.8L835 620.3c11.7 11.7 11.7 30.7 0 42.4s-30.7 11.7-42.4 0L512 382.20000000000005 231.5 662.7c-11.7 11.7-30.7 11.7-42.4 0s-11.7-30.7 0-42.4l301.7-301.7z"  horiz-adv-x="1024" />

    
    <glyph glyph-name="safety" unicode="&#58922;" d="M511.744 77.53599999999994l0.32-0.192 0.4 0.24c8.8 5.472 18.864 11.952 29.664 19.2a1035.936 1035.936 0 0 1 89.92 67.456c78.88 66.608 125.888 130.464 125.888 182.304V575.952c0 26.56 3.056 20.096-5.824 22-2.88 0.624-5.76 1.168-12.592 2.4-37.616 6.88-75.248 17.6-111.392 32.96a809.12 809.12 0 0 0-105.392 54.144 171.52 171.52 0 0 1-10.576 6.208c-1.92-0.96-4.352-2.4-10.56-6.208a797.6 797.6 0 0 0-105.776-54.16c-36.096-15.328-108.832-35.6-146.48-42.496-11.424-2.08-22.832 5.408-24.928 16.752-2.112 11.328 5.888 22.224 17.312 24.32 34.72 6.352 104.512 25.792 137.584 39.84a755.84 755.84 0 0 1 100.224 51.296c17.664 10.8 22.032 12.944 32.448 12.992 10.56 0.048 15.2-2.208 32.832-13.008a767.136 767.136 0 0 1 99.872-51.28c33.088-14.064 67.744-23.936 102.464-30.288 7.28-1.328 10.368-1.92 13.824-2.656C799.968 630.4159999999999 800 630.4 800 575.8240000000001v-229.28c0-68.064-52.992-140.048-140.704-214.096C603.824 85.60000000000002 524 32 512 32c-11.984 0-90.976 53.664-146.304 100.688C278.56 206.72000000000003 225.392 278.528 224 346.11199999999997V610.96c0 11.52 9.424 16.32 21.04 16.32a20.96 20.96 0 0 0 21.024-20.88v-259.856c1.072-51.424 48.432-115.376 126.992-182.144a1051.52 1051.52 0 0 1 89.28-67.6 1053.84 1053.84 0 0 1 29.408-19.264zM688.032 507.2l11.488-11.632a16 16 0 0 0 0-22.496L489.84 260.79999999999995a16 16 0 0 0-22.768 0L356.48 372.75199999999995a16 16 0 0 0 0 22.496l11.488 11.632a16 16 0 0 0 22.752 0l87.728-88.8L665.28 507.2a16 16 0 0 0 22.752 0z"  horiz-adv-x="1024" />

    
    <glyph glyph-name="sound" unicode="&#58923;" d="M784 524.8c-16 25.6-35.2 44.8-44.8 54.4-9.6 9.6-28.8 9.6-38.4-3.2-9.6-9.6-9.6-28.8 3.2-38.4l9.6-9.6c9.6-9.6 19.2-22.4 25.6-35.2 57.6-86.4 57.6-179.2-38.4-278.4-9.6-9.6-9.6-28.8 0-38.4 9.6-9.6 28.8-9.6 38.4 0 112 121.6 112 243.2 44.8 348.8zM896 649.6c-16 25.6-35.2 48-54.4 70.4-9.6 12.8-19.2 19.2-25.6 25.6-9.6 9.6-28.8 9.6-38.4-3.2-9.6-9.6-9.6-28.8 3.2-38.4 3.2-3.2 12.8-9.6 22.4-22.4 16-19.2 32-38.4 48-64 105.6-160 105.6-336-70.4-518.4-9.6-9.6-9.6-28.8 0-38.4 9.6-9.6 28.8-9.6 38.4 0 195.2 204.8 195.2 409.6 76.8 588.8zM483.2 809.6L265.6 624H156.8C99.2 624 48 576 48 515.2v-272c0-60.8 48-108.8 108.8-108.8h96L483.2-48c54.4-41.6 105.6-16 105.6 51.2V758.4c0 70.4-54.4 96-105.6 51.2z m51.2-803.2c0-22.4-3.2-22.4-19.2-9.6L278.4 182.39999999999998c-3.2 3.2-9.6 6.4-16 6.4H156.8c-28.8 0-54.4 25.6-54.4 54.4v272c0 28.8 25.6 54.4 54.4 54.4h118.4c6.4 0 12.8 3.2 16 6.4l224 192c16 12.8 16 12.8 16-6.4v-755.2z"  horiz-adv-x="1024" />

    
    <glyph glyph-name="mail" unicode="&#58924;" d="M928 736H96c-17.7 0-32-14.3-32-32v-640c0-17.7 14.3-32 32-32h832c17.7 0 32 14.3 32 32V704c0 17.7-14.3 32-32 32z m-40-110.8V104H136V625.2l-27.6 21.5 39.3 50.5 42.8-33.3h643.1l42.8 33.3 39.3-50.5-27.7-21.5zM833.6 664L512 414 190.4 664l-42.8 33.3-39.3-50.5 27.6-21.5 341.6-265.6c20.2-15.7 48.5-15.7 68.7 0L888 625.2l27.6 21.5-39.3 50.5-42.7-33.2z"  horiz-adv-x="1024" />

    
    <glyph glyph-name="cred" unicode="&#58925;" d="M865.745 793.6c0 3.103 0 3.103 0 0-18.618 24.824-46.545 40.34-77.575 40.34H214.11c-55.855 0-99.298-43.443-99.298-99.298v-698.181c0-55.855 43.443-99.297 99.297-99.297h574.06c55.855 0 99.298 43.442 99.298 99.297V734.642c0 21.722-6.206 43.443-21.722 58.958z m-77.575-9.31c3.103 0 9.309 0 12.412-3.102L508.897 595.006 195.491 781.188c6.206 3.103 12.412 3.103 18.618 3.103h574.06z m49.648-750.932c0-27.928-21.721-49.649-49.648-49.649H214.11c-27.928 0-49.65 21.721-49.65 49.649V731.539v6.206l332.025-195.49c9.309-6.207 18.618-3.103 24.824 0l316.51 201.697c0-3.104 3.102-9.31 3.102-12.413v-698.181zM639.224 334.352c12.412 0 24.824 12.412 24.824 24.824S651.636 384 639.224 384h-83.782l71.37 71.37c9.31 9.309 9.31 24.824 0 34.133-9.309 9.31-24.824 9.31-34.133 0L512 408.824h-3.103L431.321 486.4c-9.309 9.31-24.824 9.31-34.133 0-9.31-9.31-9.31-24.824 0-34.133L465.455 384h-74.473c-12.412 0-24.824-12.412-24.824-24.824s12.412-24.824 24.824-24.824h93.09v-74.473h-93.09c-12.412 0-24.824-12.412-24.824-24.824 0-12.413 12.412-24.825 24.824-24.825h93.09v-89.988c0-12.412 12.413-24.824 24.825-24.824 12.412 0 24.824 12.412 24.824 24.824V210.23000000000002h108.606c12.412 0 24.825 12.412 24.825 24.825 0 12.412-12.413 24.824-24.825 24.824H533.721v74.473h105.503z"  horiz-adv-x="1024" />

    
    <glyph glyph-name="home" unicode="&#58926;" d="M362.667 0.08500000000003638V256.15c0 36.267 33.109 63.851 72.533 63.851h153.6c39.253 0 72.533-27.648 72.533-63.85v-256.065h59.904c61.27 0 110.763 47.958 110.763 106.731V481.835L557.163 756.672a63.808 63.808 0 0 1-90.326 0L192 481.835v-375.019c0-58.88 49.387-106.73 110.763-106.73h59.904z m42.666 0h213.334V256.15c0 10.71-12.587 21.184-29.867 21.184H435.2c-17.408 0-29.867-10.389-29.867-21.184v-256.064z m469.334 439.083v-332.352c0-82.645-68.886-149.397-153.43-149.397H302.763c-84.63 0-153.43 66.645-153.43 149.397V439.168l-27.584-27.584a21.333 21.333 0 1 0-30.165 30.165l345.088 345.088a106.475 106.475 0 0 0 150.656 0L932.416 441.75a21.333 21.333 0 0 0-30.165-30.165l-27.584 27.584z"  horiz-adv-x="1024" />

    
    <glyph glyph-name="sort" unicode="&#58927;" d="M420.56 823.014h-54.855v-774.336c-52.455 69.163-121.62 123.763-201.12 157.052v-61.968c85.838-41.402 156.538-111.338 201.12-198.221v-0.208h54.855V-41.620000000000005l0.015 0.008-0.015 0.03V823.014z m237.705-0.4v0.4H603.41v-877.68h54.855V719.476c52.458-69.179 121.632-123.79 201.15-157.078v61.961c-85.855 41.403-156.562 111.354-201.15 198.255z"  horiz-adv-x="1024" />

    
    <glyph glyph-name="image" unicode="&#58928;" d="M928 736H96c-17.7 0-32-14.3-32-32v-640c0-17.7 14.3-32 32-32h832c17.7 0 32 14.3 32 32V704c0 17.7-14.3 32-32 32z m-40-632H136v39.9l138.5 164.3 150.1-178L658.1 407 888 134.4V104z m0 129.8L664.2 499.2c-3.2 3.8-9 3.8-12.2 0L424.6 229.6l-144 170.7c-3.2 3.8-9 3.8-12.2 0L136 243.3V664h752v-430.2zM304 440c48.6 0 88 39.4 88 88s-39.4 88-88 88-88-39.4-88-88 39.4-88 88-88z m0 116c15.5 0 28-12.5 28-28s-12.5-28-28-28-28 12.5-28 28 12.5 28 28 28z"  horiz-adv-x="1024" />

    
    <glyph glyph-name="order" unicode="&#58929;" d="M883.2 835.2h-89.6c-12.8 0-25.6-9.6-25.6-25.6s9.6-25.6 25.6-25.6h89.6c25.6 0 48-22.4 48-48v-713.6c0-25.6-22.4-48-48-48h-736c-25.6 0-48 22.4-48 48V736c0 25.6 22.4 48 48 48h99.2c12.8 0 25.6 9.6 25.6 25.6s-9.6 25.6-25.6 25.6h-99.2c-54.4 0-96-41.6-96-96v-713.6c0-54.4 41.6-96 96-96h736c54.4 0 96 41.6 96 96V739.2c0 54.4-44.8 96-96 96zM393.6 787.2h240c12.8 0 25.6 9.6 25.6 25.6s-9.6 25.6-25.6 25.6h-240c-12.8 0-25.6-9.6-25.6-25.6s12.8-25.6 25.6-25.6zM294.4 550.4h464c12.8 0 25.6 9.6 25.6 25.6s-9.6 25.6-25.6 25.6h-464c-12.8 0-25.6-9.6-25.6-25.6s9.6-25.6 25.6-25.6zM294.4 355.20000000000005h464c12.8 0 25.6 9.6 25.6 25.6s-9.6 25.6-25.6 25.6h-464c-12.8 0-25.6-9.6-25.6-25.6s9.6-25.6 25.6-25.6zM294.4 160h464c12.8 0 25.6 9.6 25.6 25.6s-9.6 25.6-25.6 25.6h-464c-12.8 0-25.6-9.6-25.6-25.6s9.6-25.6 25.6-25.6z"  horiz-adv-x="1024" />

    
    <glyph glyph-name="favorite_fill" unicode="&#58930;" d="M957.216 491.68c-3.808 11.36-13.632 19.68-25.504 21.504l-270.336 41.728-120.8 258.624C535.328 824.768 524.032 831.968 511.648 832h-0.064a31.968 31.968 0 0 1-28.928-18.336L360.8 555.648l-270.72-40.8a32.014 32.014 0 0 1-25.568-21.408c-3.84-11.36-0.992-23.936 7.36-32.512l196.448-202.08-46.88-284.8a31.997 31.997 0 0 1 13.12-31.328c9.984-7.072 23.168-7.808 33.888-1.92l241.824 133.024 241.312-133.856a32.547 32.547 0 0 1 15.52-3.968h0.64c17.696 0 32 14.304 32 32 0 3.968-0.704 7.776-2.016 11.296l-44.896 278.688L949.76 459.232c8.32 8.544 11.232 21.088 7.456 32.448z"  horiz-adv-x="1024" />

    
    <glyph glyph-name="money" unicode="&#58931;" d="M787.67 833.25h-65.743l-210.48-375.237L298.625 833.25h-65.917l222.207-391.786H224.562v-49.147h253.973V242.83000000000004H224.562v-49.147h253.973v-257.53h66.553v257.53h257.045V242.83000000000004H545.088V392.317h257.045v49.147H567.906z"  horiz-adv-x="1024" />

    
    <glyph glyph-name="warn" unicode="&#58932;" d="M849.12-32.704H174.88c-45.216 0-81.536 17.728-99.68 48.64-18.144 30.912-15.936 71.296 6.08 110.752l340.192 609.664c22.144 39.744 55.072 62.528 90.304 62.528s68.128-22.752 90.336-62.464l340.544-609.792c22.016-39.456 24.288-79.808 6.112-110.72-18.112-30.912-54.464-48.608-99.648-48.608zM511.808 734.88c-11.2 0-24.032-11.104-34.432-29.696L137.184 95.456c-10.656-19.136-13.152-36.32-6.784-47.168 6.368-10.816 22.592-17.024 44.48-17.024h674.24c21.92 0 38.112 6.176 44.48 17.024 6.336 10.816 3.872 28-6.816 47.136L546.24 705.184c-10.368 18.592-23.264 29.696-34.432 29.696zM512 256c-17.664 0-32 14.304-32 32V576c0 17.664 14.336 32 32 32s32-14.336 32-32v-288c0-17.696-14.336-32-32-32zM464 143.872a1.5 1.5 0 1 1 96 0 1.5 1.5 0 1 1-96 0z"  horiz-adv-x="1024" />

    
    <glyph glyph-name="guide" unicode="&#58933;" d="M605.848-62.708999999999946a21.13 21.13 0 0 0-20.377 15.523L476.9 347.54200000000003 80.07 458.165a21.125 21.125 0 1 0-1.985 40.039L929.25 829.271A21.125 21.125 0 0 0 956.6 801.923L625.532-49.24000000000001a21.128 21.128 0 0 0-19.684-13.468z m-453.31 544.536l347.231-96.797a21.132 21.132 0 0 0 14.697-14.746l94.822-344.73 290.526 746.93-747.277-290.657z"  horiz-adv-x="1024" />

    
    <glyph glyph-name="shopcart" unicode="&#58934;" d="M246.4-16a2.1 2.1 0 1 1 134.4 0 2.1 2.1 0 1 1-134.4 0zM716.8-16a2.1 2.1 0 1 1 134.4 0 2.1 2.1 0 1 1-134.4 0zM905.6 131.20000000000005H368c-28.8 0-57.6 25.6-64 54.4L208 752c-9.6 54.4-60.8 96-115.2 96H70.4c-12.8 0-25.6-12.8-25.6-25.6s12.8-25.6 25.6-25.6h22.4c28.8 0 57.6-25.6 64-54.4l96-566.4c9.6-54.4 60.8-96 115.2-96h537.6c12.8 0 25.6 12.8 25.6 25.6s-9.6 25.6-25.6 25.6zM880 716.8H307.2c-12.8 0-25.6-12.8-25.6-25.6s12.8-25.6 25.6-25.6H880c25.6 0 38.4-16 32-41.6l-70.4-281.6c-6.4-32-41.6-57.6-73.6-60.8l-396.8-28.8c-12.8 0-25.6-12.8-22.4-28.8 0-12.8 12.8-25.6 28.8-22.4l396.8 28.8c54.4 3.2 105.6 48 118.4 99.2l70.4 281.6c12.8 54.4-25.6 105.6-83.2 105.6z"  horiz-adv-x="1024" />

    
    <glyph glyph-name="user" unicode="&#58935;" d="M858.5 132.39999999999998c-18.9 44.8-46.1 85-80.6 119.5-34.5 34.5-74.7 61.6-119.5 80.6-0.4 0.2-0.8 0.3-1.2 0.5C719.5 378 760 451.3 760 534c0 137-111 248-248 248S264 671 264 534c0-82.7 40.5-156 102.8-201.1-0.4-0.2-0.8-0.3-1.2-0.5-44.8-18.9-85-46-119.5-80.6-34.5-34.5-61.6-74.7-80.6-119.5C146.9 88.5 137 42 136-5.7999999999999545c-0.1-4.5 3.5-8.2 8-8.2h60c4.4 0 7.9 3.5 8 7.8 2 77.2 33 149.5 87.8 204.3 56.7 56.7 132 87.9 212.2 87.9s155.5-31.2 212.2-87.9C779 143.29999999999995 810 71 812-6.2000000000000455c0.1-4.4 3.6-7.8 8-7.8h60c4.5 0 8.1 3.7 8 8.2-1 47.8-10.9 94.3-29.5 138.2zM512 362c-45.9 0-89.1 17.9-121.6 50.4S340 488.1 340 534c0 45.9 17.9 89.1 50.4 121.6S466.1 706 512 706s89.1-17.9 121.6-50.4S684 579.9 684 534c0-45.9-17.9-89.1-50.4-121.6S557.9 362 512 362z"  horiz-adv-x="1024" />

    
    <glyph glyph-name="address" unicode="&#58936;" d="M511.999 830.71c-173.639 0-314.904-138.295-314.904-308.281 0-77.604 31.02-185.006 85.106-294.67C335.947 118.78700000000003 407.054 18.470000000000027 477.387-47.620000000000005c8.956-9.603 21.51-15.089 34.612-15.089 12.913 0 25.36 5.358 34.296 14.737 149.55 140.015 280.61 406.359 280.61 570.4 0 169.986-141.267 308.281-314.906 308.281z m5.469-848.838l-1.13-1.139c-0.816-0.89-2.232-1.952-4.339-1.952-2.245 0-3.695 1.251-4.361 1.997l-1.295 1.328C366.208 113.41999999999996 238.585 370.95899999999995 238.585 522.428c0 147.11 122.652 266.791 273.414 266.791s273.415-119.682 273.415-266.791c0-151.911-127.714-409.558-267.946-540.556zM513.045 714.384c-91.092 0-165.2-74.113-165.2-165.211 0-91.076 74.108-165.173 165.2-165.173 91.083 0 165.184 74.097 165.184 165.173 0 91.098-74.1 165.21-165.184 165.21z m0-288.894c-68.214 0-123.71 55.485-123.71 123.683 0 68.22 55.496 123.72 123.71 123.72 68.205 0 123.694-55.5 123.694-123.72 0-68.198-55.489-123.683-123.694-123.683z"  horiz-adv-x="1024" />

    
    <glyph glyph-name="zan" unicode="&#58937;" d="M841.9 487.813H664.016c-4.087 0-7.605 1.824-9.635 4.98-2.045 3.188-2.388 6.788-0.932 10.314 10.105 19.105 57.494 115.41 44.9 217.797-3.52 28.75-18.95 67.455-72.484 88.576-13.886 5.466-39.682 8.027-59.192 8.602-46.86 1.38-56.33-7.693-60.373-11.568-0.165-0.156-0.324-0.316-0.484-0.477-15.084-15.409-13.856-37.493-12.3-65.453 0.795-14.287 1.695-30.467 0.858-48.954-4.58-49.57-11.172-76.334-24.284-98.636-40.69-69.27-109.423-104.142-122.656-105.213H86.587c-11.762 0-21.296-9.534-21.296-21.296v-414.746c0-11.761 9.534-21.296 21.296-21.296h164.338c0.858 0 1.7 0.065 2.534 0.164H358.06c1.191-0.969 2.535-2.081 3.74-3.082 22.952-19.025 83.92-69.563 184.57-69.563h209.635c53.635 0 96.863 29.224 112.82 76.27 0.139 0.41 0.266 0.824 0.38 1.241 2.247 8.248 8.026 25.421 15.345 47.162 27.736 82.41 74.159 220.34 74.159 294.157 0 72.631-40.392 111.021-116.808 111.021z m-734.017-42.625h121.745v-372.153H107.883V445.188z m736.3-348.966c-7.65-22.724-13.226-39.29-15.883-48.863-10.206-29.32-37.184-46.804-72.294-46.804H546.372c-85.293 0-135.816 41.88-157.39 59.763-9.692 8.032-15.542 12.881-24.846 12.881h-91.914V445.188h75.364c20.07 0 51.522 17.555 74.263 33.985 24.394 17.623 58.936 47.932 84.964 92.242 19.04 32.387 25.602 68.704 30.02 116.803 0.03 0.317 0.05 0.634 0.066 0.952 0.975 20.863-0.04 39.115-0.855 53.781-0.635 11.404-1.403 25.21-0.18 31.395 15.942 3.081 61.37 0.633 74.388-4.49 27.712-10.934 42.701-28.64 45.822-54.138 11.342-92.194-35.077-182.904-40.407-192.944-0.493-0.933-0.749-1.487-0.749-1.487-7.703-16.702-6.354-35.948 3.625-51.51 9.889-15.376 26.888-24.556 45.473-24.556h177.886c52.712 0 74.215-19.825 74.215-68.43-0.001-66.842-46.795-205.875-71.934-280.57z"  horiz-adv-x="1024" />

    
    <glyph glyph-name="receive" unicode="&#58938;" d="M114.133 405.333l-14.656-22.378A21.333 21.333 0 0 1 96 371.264v-200.597a21.333 21.333 0 0 1 21.333-21.334h42.795v-42.666h-42.795a64 64 0 0 0-64 64V371.264a64 64 0 0 0 10.454 35.072l134.101 204.736A64 64 0 0 0 251.435 640H396.18A149.376 149.376 0 0 0 544 768h277.333a149.333 149.333 0 0 0 149.334-149.333V256a149.333 149.333 0 0 0-149.334-149.333v42.666A106.667 106.667 0 0 1 928 256V618.6669999999999a106.667 106.667 0 0 1-106.667 106.666H544a106.667 106.667 0 0 1-106.667-106.666v-469.334h231.36v-42.666H329.92v42.666h64.747v448h-64v-170.666a64 64 0 0 0-64-64H96v42.666h18.133z m0 0h152.534A21.333 21.333 0 0 1 288 426.667V597.3330000000001h-36.565a21.333 21.333 0 0 1-17.856-9.642L114.133 405.333zM245.333 0a106.667 106.667 0 1 0 0 213.333 106.667 106.667 0 0 0 0-213.333z m0 42.667a64 64 0 1 1 0 128 64 64 0 0 1 0-128z m512-42.667a106.667 106.667 0 1 0 0 213.333 106.667 106.667 0 0 0 0-213.333z m0 42.667a64 64 0 1 1 0 128 64 64 0 0 1 0-128z"  horiz-adv-x="1024" />

    
    <glyph glyph-name="more" unicode="&#58939;" d="M223.962 288.102c-52.98 0-95.984 43.004-95.984 95.984s43.004 95.984 95.984 95.984 95.984-43.004 95.984-95.984-43.003-95.984-95.984-95.984zM511.914 288.102c-52.98 0-95.984 43.004-95.984 95.984s43.004 95.984 95.984 95.984 95.984-43.004 95.984-95.984-43.004-95.984-95.984-95.984zM800.038 288.102c-52.98 0-95.984 43.004-95.984 95.984s43.003 95.984 95.984 95.984 95.984-43.004 95.984-95.984-43.176-95.984-95.984-95.984z"  horiz-adv-x="1024" />

    
    <glyph glyph-name="phone" unicode="&#58940;" d="M250.038 795.06c18.884 0 36.074-6.144 47.473-21.102 13.439-17.64 47.898-141.771 58.967-182.5a23.175 23.175 0 0 0-5.897-22.384l-70.743-71.49c-9.657-9.758-12.58-24.344-7.39-37.055 59.585-145.938 182.891-264.887 315.272-313.283a23.058 23.058 0 0 1 7.921-1.403c6.004 0 11.898 2.34 16.317 6.71l68.775 67.987a23.177 23.177 0 0 0 20.52 6.31c42.43-7.863 184.538-35.006 203.625-49.186 17.625-13.094 24.846-45.997 16.113-78.567-8.343-31.131-63.44-131.591-175.55-131.591-5.153 0-10.432 0.213-15.826 0.653-122.762 10.033-265.553 94.018-413.8 237.88C167.572 349.909 84.98 537.929 99.082 649.06c12.674 99.909 102.325 137.218 126.913 143.03 8.111 1.917 16.221 2.97 24.042 2.97m0 49.147c-11.416 0-23.308-1.443-35.346-4.288-21.926-5.183-56.574-20.065-88.068-46.291-42.967-35.78-69.35-83.633-76.295-138.383-4.228-33.319-1.57-71.324 7.902-112.96 8.961-39.39 23.743-80.948 43.936-123.52 20.44-43.09 45.777-85.837 75.312-127.06 31.047-43.33 66.074-84.018 104.11-120.931 77.27-74.984 153.335-134.335 226.082-176.402 76.679-44.342 150.005-69.64 217.942-75.192 6.628-0.542 13.3-0.817 19.83-0.817 61.062 0 116.923 23.728 161.545 68.62 35.21 35.423 55.123 75.682 61.477 99.394 6.239 23.268 7.09 47.26 2.46 69.377-5.524 26.394-18.227 47.613-36.736 61.363-10.924 8.115-27.694 16.94-111.772 35.501-43.242 9.547-88.86 18.23-112.203 22.557a72.476 72.476 0 0 1-13.18 1.212c-19.158 0-37.218-7.42-50.848-20.894l-56.808-56.157c-53.757 22.238-106.046 57.6-152.09 102.98-49.21 48.498-89.01 106.32-115.537 167.75l63.768 64.441c18.084 18.274 25.13 45.038 18.39 69.843-5.768 21.222-17.207 62.607-29.01 101.341-22.39 73.49-31.192 88.735-38.289 98.05-19.892 26.097-50.634 40.466-86.572 40.466z"  horiz-adv-x="1025" />

    
    <glyph glyph-name="gift" unicode="&#58941;" d="M880 586H732.4c13.6 21.4 21.6 46.8 21.6 74 0 76.1-61.9 138-138 138-41.4 0-78.7-18.4-104-47.4-25.3 29-62.6 47.4-104 47.4-76.1 0-138-61.9-138-138 0-27.2 7.9-52.6 21.6-74H144c-17.7 0-32-14.3-32-32v-200c0-4.4 3.6-8 8-8h40v-344c0-17.7 14.3-32 32-32h640c17.7 0 32 14.3 32 32V346h40c4.4 0 8 3.6 8 8V554c0 17.7-14.3 32-32 32z m-334 74c0 38.6 31.4 70 70 70s70-31.4 70-70-31.4-70-70-70h-70v70z m-138 70c38.6 0 70-31.4 70-70v-70h-70c-38.6 0-70 31.4-70 70s31.4 70 70 70zM180 414V518h298v-104H180z m48-68h250v-308H228V346z m568-308H546V346h250v-308z m48 376H546V518h298v-104z"  horiz-adv-x="1024" />

    
    <glyph glyph-name="favorite" unicode="&#58942;" d="M471.869063 823.901703c13.810996 30.163991 21.179993 30.092991 34.223989-0.245l113.656964-264.368918c5.418998-12.602996 20.222994-18.509994 33.06599-13.192996 12.843996 5.316998 18.863994 19.842994 13.445996 32.44599L552.604037 842.908697c-30.205991 70.259978-94.91997 70.877978-126.78196 1.292999L306.609114 583.8437779999999c-5.712998-12.476996-0.037-27.134992 12.678996-32.74099 12.714996-5.605998 27.653991-0.036 33.36699 12.440996L471.869063 823.901703z m474.464851-324.384899c33.50399-3.567999 35.712989-10.466997 10.337997-32.01499L735.55498 279.74187300000006c-10.540997-8.949997-11.690996-24.590992-2.569999-34.93399 9.121997-10.342997 25.061992-11.471996 35.602989-2.520999L989.704901 430.046826c58.764982 49.899984 39.365988 110.482965-37.923988 118.713963l-289.18991 30.79499c-13.859996 1.476-26.312992-8.350997-27.816991-21.949993-1.504-13.597996 8.510997-25.817992 22.369993-27.292992l289.189909-30.79599zM789.296963-50.03502400000002c6.894998-32.36799 0.89-36.561989-27.835991-19.539994L511.14705 78.75093500000003c-11.932996 7.070998-27.447991 3.310999-34.653989-8.396997-7.205998-11.709996-3.374999-26.932992 8.557997-34.003989l250.314922-148.325954c66.524979-39.419988 119.249963-2.595999 103.342968 72.075977L779.192967 239.48988499999996c-2.851999 13.388996-16.224995 21.973993-29.869991 19.174994-13.644996-2.797999-22.393993-15.919995-19.541994-29.309991l59.515981-279.389912z m-556.517826-17.329995c-29.241991-16.436995-35.162989-12.129996-27.540991 19.937994l66.412979 279.429912c3.165999 13.320996-5.271998 26.637992-18.847994 29.744991-13.574996 3.105999-27.146992-5.173998-30.312991-18.494994l-66.412979-279.429913c-17.649994-74.263977 34.333989-112.087965 101.793968-74.168977l252.406922 141.877956c12.095996 6.798998 16.284995 21.931993 9.355997 33.79999-6.929998 11.869996-22.351993 15.979995-34.44799 9.179997L232.779137-67.36501899999996z m-102.779968 462.076856l-87.800972 78.102975c-10.327997 9.186997-26.289992 8.418997-35.651989-1.714999-9.362997-10.133997-8.579997-25.795992 1.746999-34.982989l87.800973-78.101976L223.80514 244.40988400000003c10.327997-9.186997 26.289992-8.419997 35.652989 1.714999 9.361997 10.132997 8.579997 25.795992-1.748 34.982989l-127.70996 113.602965z m50.400985 119.024962c9.971997 0.995 20.265994 2.052999 30.82799 3.163999 25.449992 2.677999 51.299984 5.546998 76.212976 8.414998 8.719997 1.004 16.699995 1.935999 23.773993 2.772999 4.250999 0.503 7.249998 0.862 8.857997 1.056 13.834996 1.671999 23.669993 14.031996 21.965993 27.607991-1.702999 13.574996-14.299996 23.224993-28.134991 21.553993-1.549-0.187-4.523999-0.543-8.731997-1.040999-7.021998-0.831-14.949995-1.756999-23.613993-2.755-24.755992-2.849999-50.443984-5.699998-75.712976-8.359997a5736.672207 5736.672207 0 0 0-30.552991-3.134999c-20.541994-2.049999-39.362988-3.800999-56.079982-5.199998-13.888996-1.162-24.187992-13.151996-23.003993-26.779992 1.184-13.629996 13.402996-23.735993 27.291991-22.573993 17.015995 1.424 36.102989 3.199999 56.899983 5.274998z"  horiz-adv-x="1024" />

    
    <glyph glyph-name="collection_fill" unicode="&#58943;" d="M484.51-54.322L102.266 328.222C62.308 368.178 33.327 415.226 20.17 466.63 7.05 515.6279999999999 7.606 568.1669999999999 24.82 621.538c15.623 46.494 42.976 88.637 77.446 122.548 35.022 34.208 78.276 60.763 124.75 75.533 54.746 17.513 108.931 18.03 159.777 4.653 45.204-12.343 87.583-34.745 124.832-65.953 37.73 31.208 80.426 53.61 125.272 65.657 50.927 13.434 105.07 13.156 159.817-4.357 47.068-14.769 90.246-41.325 124.752-75.533 34.745-34.192 61.58-76.053 77.164-123.106 17.774-52.813 18.328-105.352 5.488-154.35-13.955-51.722-42.696-98.452-82.652-138.408l-1.628-2.207-380.86-380.337c-15.067-15.05-39.399-15.05-54.466 0z"  horiz-adv-x="1024" />

    
    <glyph glyph-name="success" unicode="&#58944;" d="M797 611.0350000000001L420.391 234.5 227.001 427.928l-51.714-51.714 219.25-219.286c7.142-7.142 16.498-10.714 25.857-10.714s18.714 3.572 25.858 10.714l402.465 402.394-51.718 51.713zM512 896C229.215 896 0 666.785 0 384s229.215-512 512-512 512 229.215 512 512S794.785 896 512 896z m0-987.429C249.858-91.42899999999997 36.571 121.85799999999995 36.571 384S249.858 859.429 512 859.429 987.429 646.142 987.429 384 774.142-91.42899999999997 512-91.42899999999997z"  horiz-adv-x="1024" />

    


  </font>
</defs>
</svg>
